<svg width="28" height="18" viewBox="0 0 28 18" fill="none" xmlns="http://www.w3.org/2000/svg">
<path fill-rule="evenodd" clip-rule="evenodd" d="M22.2678 3.66919C17.7017 -0.889731 10.2984 -0.889731 5.73218 3.66919L5.129 4.27141C4.90069 4.49936 4.90069 4.86893 5.129 5.09688L7.0089 6.97379C7.12305 7.08776 7.30814 7.08776 7.42229 6.97379L8.23217 6.1652C11.4177 2.98478 16.5824 2.98478 19.7679 6.1652L20.5241 6.92024C20.6383 7.03421 20.8233 7.03421 20.9375 6.92024L22.8174 5.04334C23.0457 4.81539 23.0457 4.44581 22.8174 4.21787L22.2678 3.66919ZM27.8288 9.22129L26.1557 7.55083C25.9273 7.32289 25.5572 7.32289 25.3289 7.55083L19.9745 12.8967C19.9174 12.9537 19.8249 12.9537 19.7678 12.8967L14.4133 7.55073L14.4133 7.55072C14.185 7.32278 13.8148 7.32278 13.5865 7.55074L8.23231 12.8967C8.17523 12.9537 8.08269 12.9537 8.02561 12.8967L2.67113 7.55074C2.44282 7.32279 2.07266 7.32279 1.84435 7.55074L0.171232 9.22119C-0.0570775 9.44913 -0.0570775 9.81871 0.171232 10.0467L7.71563 17.579C7.94394 17.807 8.31411 17.807 8.54241 17.579L13.8967 12.2332C13.9538 12.1762 14.0463 12.1762 14.1034 12.2332L19.4578 17.579C19.6861 17.807 20.0563 17.807 20.2846 17.579L27.8288 10.0467C28.0571 9.8188 28.0571 9.44923 27.8288 9.22129Z" fill="#3B99FC"/>
</svg>
