<svg width="30" height="28" viewBox="0 0 30 28" fill="none" xmlns="http://www.w3.org/2000/svg">
<path d="M27.615 0.875L16.6768 9.07811L18.7108 4.24375L27.615 0.875Z" fill="#E17726" stroke="#E17726" stroke-width="0.25" stroke-linecap="round" stroke-linejoin="round"/>
<path d="M2.38477 0.875L13.2256 9.15467L11.289 4.24374L2.38477 0.875Z" fill="#E27625" stroke="#E27625" stroke-width="0.25" stroke-linecap="round" stroke-linejoin="round"/>
<path d="M23.6769 19.895L20.7666 24.4013L26.9984 26.1404L28.7837 19.9935L23.6769 19.895Z" fill="#E27625" stroke="#E27625" stroke-width="0.25" stroke-linecap="round" stroke-linejoin="round"/>
<path d="M1.22705 19.9935L3.00139 26.1404L9.22244 24.4013L6.32288 19.895L1.22705 19.9935Z" fill="#E27625" stroke="#E27625" stroke-width="0.25" stroke-linecap="round" stroke-linejoin="round"/>
<path d="M8.88729 12.2826L7.15625 14.9295L13.3232 15.2139L13.1176 8.4873L8.88729 12.2826Z" fill="#E27625" stroke="#E27625" stroke-width="0.25" stroke-linecap="round" stroke-linejoin="round"/>
<path d="M21.1126 12.283L16.8174 8.41113L16.6768 15.2143L22.8436 14.9299L21.1126 12.283Z" fill="#E27625" stroke="#E27625" stroke-width="0.25" stroke-linecap="round" stroke-linejoin="round"/>
<path d="M9.22266 24.4016L12.9552 22.5751L9.742 20.0376L9.22266 24.4016Z" fill="#E27625" stroke="#E27625" stroke-width="0.25" stroke-linecap="round" stroke-linejoin="round"/>
<path opacity="0.8" d="M17.0449 22.5751L20.7667 24.4016L20.2582 20.0376L17.0449 22.5751Z" fill="#E27625" stroke="#E27625" stroke-width="0.25" stroke-linecap="round" stroke-linejoin="round"/>
<path d="M20.7667 24.4017L17.0449 22.5752L17.3478 25.0252L17.3153 26.0642L20.7667 24.4017Z" fill="#D5BFB2" stroke="#D5BFB2" stroke-width="0.25" stroke-linecap="round" stroke-linejoin="round"/>
<path d="M9.22266 24.4017L12.6848 26.0642L12.6632 25.0252L12.9552 22.5752L9.22266 24.4017Z" fill="#D5BFB2" stroke="#D5BFB2" stroke-width="0.25" stroke-linecap="round" stroke-linejoin="round"/>
<path d="M12.7496 18.4188L9.65527 17.5001L11.8407 16.4829L12.7496 18.4188Z" fill="#233447" stroke="#233447" stroke-width="0.25" stroke-linecap="round" stroke-linejoin="round"/>
<path d="M17.2505 18.4188L18.1593 16.4829L20.3556 17.5001L17.2505 18.4188Z" fill="#233447" stroke="#233447" stroke-width="0.25" stroke-linecap="round" stroke-linejoin="round"/>
<path d="M9.22227 24.4013L9.76326 19.895L6.32275 19.9935L9.22227 24.4013Z" fill="#CC6228" stroke="#CC6228" stroke-width="0.25" stroke-linecap="round" stroke-linejoin="round"/>
<path d="M20.2363 19.895L20.7665 24.4013L23.6768 19.9935L20.2363 19.895Z" fill="#CC6228" stroke="#CC6228" stroke-width="0.25" stroke-linecap="round" stroke-linejoin="round"/>
<path d="M22.8436 14.9297L16.6768 15.2141L17.2501 18.4188L18.159 16.4828L20.3553 17.5L22.8436 14.9297Z" fill="#CC6228" stroke="#CC6228" stroke-width="0.25" stroke-linecap="round" stroke-linejoin="round"/>
<path d="M9.65547 17.5L11.8409 16.4828L12.7498 18.4188L13.3232 15.2141L7.15625 14.9297L9.65547 17.5Z" fill="#CC6228" stroke="#CC6228" stroke-width="0.25" stroke-linecap="round" stroke-linejoin="round"/>
<path d="M7.15625 14.9297L9.74205 20.0375L9.65544 17.5L7.15625 14.9297Z" fill="#E27525" stroke="#E27525" stroke-width="0.25" stroke-linecap="round" stroke-linejoin="round"/>
<path d="M20.3557 17.5L20.2583 20.0375L22.8441 14.9297L20.3557 17.5Z" fill="#E27525" stroke="#E27525" stroke-width="0.25" stroke-linecap="round" stroke-linejoin="round"/>
<path d="M13.3235 15.2139L12.75 18.4186L13.4749 22.2029L13.6372 17.2155L13.3235 15.2139Z" fill="#E27525" stroke="#E27525" stroke-width="0.25" stroke-linecap="round" stroke-linejoin="round"/>
<path d="M16.677 15.2139L16.374 17.2046L16.5255 22.2029L17.2504 18.4186L16.677 15.2139Z" fill="#E27525" stroke="#E27525" stroke-width="0.25" stroke-linecap="round" stroke-linejoin="round"/>
<path d="M17.2503 18.4188L16.5254 22.2031L17.0447 22.575L20.258 20.0375L20.3554 17.5L17.2503 18.4188Z" fill="#F5841F" stroke="#F5841F" stroke-width="0.25" stroke-linecap="round" stroke-linejoin="round"/>
<path d="M9.65527 17.5L9.74189 20.0375L12.9551 22.575L13.4745 22.2031L12.7496 18.4188L9.65527 17.5Z" fill="#F5841F" stroke="#F5841F" stroke-width="0.25" stroke-linecap="round" stroke-linejoin="round"/>
<path d="M17.3154 26.0639L17.3478 25.0248L17.0666 24.7842H12.9337L12.6632 25.0248L12.6848 26.0639L9.22266 24.4014L10.4344 25.4076L12.8904 27.1248H17.099L19.5657 25.4076L20.7667 24.4014L17.3154 26.0639Z" fill="#C0AC9D" stroke="#C0AC9D" stroke-width="0.25" stroke-linecap="round" stroke-linejoin="round"/>
<path d="M17.0448 22.5749L16.5255 22.2031H13.4745L12.9552 22.5749L12.6631 25.025L12.9336 24.7843H17.0665L17.3478 25.025L17.0448 22.5749Z" fill="#161616" stroke="#161616" stroke-width="0.25" stroke-linecap="round" stroke-linejoin="round"/>
<path d="M28.0804 9.61403L29.0001 5.08593L27.6152 0.875L17.0449 8.80471L21.1129 12.2828L26.8578 13.9781L28.1237 12.4797L27.572 12.075L28.4483 11.2657L27.7775 10.7406L28.6539 10.0625L28.0804 9.61403Z" fill="#763E1A" stroke="#763E1A" stroke-width="0.25" stroke-linecap="round" stroke-linejoin="round"/>
<path d="M1 5.08593L1.93045 9.61403L1.3354 10.0625L2.22257 10.7406L1.55178 11.2657L2.42813 12.075L1.87635 12.4797L3.1422 13.9781L8.88721 12.2828L12.9552 8.80471L2.38486 0.875L1 5.08593Z" fill="#763E1A" stroke="#763E1A" stroke-width="0.25" stroke-linecap="round" stroke-linejoin="round"/>
<path d="M26.858 13.978L21.113 12.2827L22.8441 14.9296L20.2583 20.0374L23.6772 19.9936H28.7838L26.858 13.978Z" fill="#F5841F" stroke="#F5841F" stroke-width="0.25" stroke-linecap="round" stroke-linejoin="round"/>
<path d="M8.88698 12.2827L3.14204 13.978L1.22705 19.9936H6.32288L9.7417 20.0374L7.15595 14.9296L8.88698 12.2827Z" fill="#F5841F" stroke="#F5841F" stroke-width="0.25" stroke-linecap="round" stroke-linejoin="round"/>
<path d="M16.677 15.214L17.0449 8.80455L18.711 4.24365H11.2891L12.9552 8.80455L13.323 15.214L13.4637 17.2264L13.4745 22.203H16.5255L16.5364 17.2264L16.677 15.214Z" fill="#F5841F" stroke="#F5841F" stroke-width="0.25" stroke-linecap="round" stroke-linejoin="round"/>
</svg>
