<svg width="125" height="124" viewBox="0 0 125 124" fill="none" xmlns="http://www.w3.org/2000/svg">
<circle cx="62.1035" cy="62" r="62" fill="url(#paint0_linear_485_7548)"/>
<path fill-rule="evenodd" clip-rule="evenodd" d="M60.0135 29.0821C61.4023 28.9498 62.8043 28.9498 64.1931 29.0821C68.2372 29.4624 71.7852 31.2447 75.6441 34.1347C79.4335 36.9751 83.752 41.0655 89.294 46.3165L89.7239 46.7232C92.0948 48.9684 93.7415 50.5258 94.7269 52.533C94.912 52.9066 95.0741 53.2902 95.2196 53.6804C95.9999 55.7768 95.9966 58.0452 95.9966 61.3089V73.7552C95.9966 78.2754 95.9966 81.9226 95.6131 84.7895C95.2096 87.7655 94.3565 90.272 92.3659 92.2626C90.3753 94.2532 87.8688 95.1063 84.8928 95.5097C82.026 95.8933 78.3787 95.8933 73.8585 95.8933H50.3481C45.8279 95.8933 42.1806 95.8933 39.3137 95.5097C36.3377 95.1063 33.8313 94.2532 31.8407 92.2626C29.8501 90.272 28.9969 87.7655 28.5968 84.7895C28.21 81.9226 28.21 78.2754 28.21 73.7552V61.3056C28.21 58.0386 28.21 55.7735 28.987 53.6771C29.1325 53.2869 29.2979 52.9033 29.4797 52.5297C30.4651 50.5225 32.1118 48.9651 34.486 46.7199L34.9159 46.3132C40.4579 41.0622 44.7731 36.9718 48.5625 34.1314C52.4214 31.2414 55.9694 29.4591 60.0135 29.0788V29.0821ZM63.7302 34.019C62.648 33.9171 61.5586 33.9171 60.4764 34.019C57.7054 34.2802 55.0204 35.4904 51.5352 38.106C48.0037 40.7513 43.8935 44.6433 38.2093 50.0265C36.556 51.5906 35.5607 52.5528 34.9027 53.3068L41.5226 57.1392C41.5391 56.8548 41.5623 56.577 41.5887 56.3158C41.7475 54.7518 42.0947 53.2968 42.9676 51.9874C43.6323 50.9954 44.4854 50.1423 45.4807 49.4776C46.7868 48.6047 48.2417 48.2575 49.8058 48.0988C51.3004 47.9466 53.1488 47.9466 55.361 47.9466H68.8423C71.0577 47.9466 72.9062 47.9466 74.4008 48.0988C75.9648 48.2575 77.4198 48.6047 78.7292 49.4776C79.7212 50.1423 80.5743 50.9954 81.239 51.9907C82.1119 53.2968 82.4591 54.7518 82.6179 56.3158C82.6443 56.5803 82.6675 56.8548 82.684 57.1392L89.3006 53.3068C88.6459 52.5528 87.6473 51.5873 86.0006 50.0265C80.3131 44.6433 76.2029 40.7513 72.6714 38.106C69.1829 35.4937 66.5012 34.2802 63.7302 34.019ZM77.8067 59.9598C74.3809 61.9272 71.7059 63.4152 69.378 64.4701C66.4747 65.7927 64.2923 66.3549 62.1033 66.3549C59.9143 66.3549 57.7319 65.7927 54.8286 64.4701C52.5007 63.4119 49.8256 61.9272 46.3999 59.9598C46.4099 58.6503 46.4396 57.6451 46.5223 56.8184C46.6413 55.6446 46.8529 55.1023 47.0943 54.7451C47.396 54.2936 47.7836 53.906 48.2351 53.6044C48.5923 53.363 49.1345 53.1513 50.3084 53.0323C51.522 52.91 53.1191 52.9066 55.49 52.9066H68.7166C71.0908 52.9066 72.6846 52.9066 73.8982 53.0323C75.072 53.1513 75.6143 53.363 75.9748 53.6044C76.4245 53.902 76.8113 54.2921 77.1123 54.7451C77.3536 55.1023 77.5653 55.6446 77.6843 56.8184C77.767 57.6451 77.7967 58.6503 77.8067 59.9598ZM33.2163 58.0617C33.1766 58.9578 33.17 60.1251 33.17 61.7387V73.5733C33.17 78.3184 33.1766 81.6283 33.5105 84.1282C33.8379 86.5553 34.4364 87.8383 35.3491 88.7542C36.265 89.6702 37.548 90.2654 39.9784 90.5927C42.4716 90.9267 45.7849 90.9333 50.53 90.9333H73.6766C78.4217 90.9333 81.7317 90.9267 84.2315 90.5927C86.6586 90.2654 87.9416 89.6669 88.8575 88.7542C89.7735 87.8383 90.3687 86.5553 90.696 84.1249C91.03 81.6284 91.0366 78.3184 91.0366 73.5733V61.7387C91.0366 60.1251 91.03 58.9611 90.9903 58.0617L83.1139 62.6249C78.3589 65.3761 74.6323 67.532 71.4281 68.987C68.1545 70.475 65.2446 71.3149 62.1033 71.3149C58.962 71.3149 56.0554 70.475 52.7785 68.987C49.571 67.532 45.8477 65.3761 41.0927 62.6216L33.2163 58.0584V58.0617Z" fill="white"/>
<defs>
<linearGradient id="paint0_linear_485_7548" x1="132.223" y1="-2.32215e-05" x2="-10.7302" y2="14.0908" gradientUnits="userSpaceOnUse">
<stop stop-color="#7AD2FF"/>
<stop offset="0.489583" stop-color="#8A5CFF"/>
<stop offset="1" stop-color="#FF79B8"/>
</linearGradient>
</defs>
</svg>
