<svg width="32" height="32" viewBox="0 0 32 32" fill="none" xmlns="http://www.w3.org/2000/svg">
<circle cx="16" cy="16" r="16" fill="black"/>
<path d="M17.5214 15H12.1426C11.5116 15 11 15.5116 11 16.1426C11 16.7736 11.5116 17.2851 12.1426 17.2851H17.5214C18.1524 17.2851 18.664 16.7736 18.664 16.1426C18.664 15.5116 18.1525 15 17.5214 15ZM20.5214 19.5704H12.1426C11.5116 19.5704 11 20.0819 11 20.7129C11 21.3439 11.5116 21.8555 12.1426 21.8555H20.5214C21.1524 21.8555 21.664 21.3439 21.664 20.7129C21.664 20.0819 21.1525 19.5704 20.5214 19.5704Z" fill="white"/>
<path d="M12.1426 10H20.5214C21.1525 10 21.664 10.5116 21.664 11.1426C21.664 11.7736 21.1524 12.2851 20.5214 12.2851H12.1426C11.5116 12.2851 11 11.7736 11 11.1426C11 10.5116 11.5116 10 12.1426 10Z" fill="white"/>
</svg>
