<svg aria-hidden="true" xmlns="http://www.w3.org/2000/svg" xmlns:xlink="http://www.w3.org/1999/xlink"><symbol viewBox="0 0 11 12" id="arrow" xmlns="http://www.w3.org/2000/svg">
  <defs id="adefs8"/>
  <sodipodi:namedview id="anamedview6" pagecolor="#ffffff" bordercolor="#000000" borderopacity="0.25" xmlns:inkscape="http://www.inkscape.org/namespaces/inkscape" inkscape:showpageshadow="2" inkscape:pageopacity="0.0" inkscape:pagecheckerboard="0" inkscape:deskcolor="#d1d1d1" showgrid="false" inkscape:zoom="67" inkscape:cx="5.5074627" inkscape:cy="6.0074627" inkscape:window-width="1920" inkscape:window-height="991" inkscape:window-x="-9" inkscape:window-y="-9" inkscape:window-maximized="1" inkscape:current-layer="svg4" xmlns:sodipodi="http://sodipodi.sourceforge.net/DTD/sodipodi-0.dtd"/>
  <path d="M 5.5,0.375 A 0.75,0.75 0 0 0 4.75,1.125 V 9.0625 L 1.96875,6.28125 a 0.75,0.75 0 0 0 -1.0625,0 0.75,0.75 0 0 0 0,1.0625 l 4.0625,4.0625 A 0.75,0.75 0 0 0 5.5,11.625 0.75,0.75 0 0 0 6.03125,11.40625 l 4.0625,-4.0625 a 0.75,0.75 0 0 0 0,-1.0625 0.75,0.75 0 0 0 -1.0625,0 L 6.25,9.0625 V 1.125 A 0.75,0.75 0 0 0 5.5,0.375 Z" id="apath354"/>
</symbol><symbol viewBox="0 0 18 14" id="certificate" xmlns="http://www.w3.org/2000/svg">
  <defs id="bdefs8"/>
  <sodipodi:namedview id="bnamedview6" pagecolor="#ffffff" bordercolor="#000000" borderopacity="0.25" xmlns:inkscape="http://www.inkscape.org/namespaces/inkscape" inkscape:showpageshadow="2" inkscape:pageopacity="0.0" inkscape:pagecheckerboard="0" inkscape:deskcolor="#d1d1d1" showgrid="false" inkscape:zoom="57.428571" inkscape:cx="9.0024876" inkscape:cy="5.6243781" inkscape:window-width="1902" inkscape:window-height="1020" inkscape:window-x="196" inkscape:window-y="78" inkscape:window-maximized="0" inkscape:current-layer="svg4" xmlns:sodipodi="http://sodipodi.sourceforge.net/DTD/sodipodi-0.dtd"/>
  <path d="m 3.1113281,0.671875 c -1.3770967,0 -2.4316406,1.2157464 -2.4316406,2.609375 v 7.4375 c 0,1.393693 1.0545816,2.609375 2.4316406,2.609375 H 14.888672 c 1.377059,0 2.43164,-1.215677 2.43164,-2.609375 V 9.390625 4.609375 3.28125 c 10e-7,-1.3936334 -1.054543,-2.609375 -2.43164,-2.609375 z m 0,1.5 H 14.888672 c 0.481101,0 0.931641,0.4492105 0.931641,1.109375 V 3.859375 H 10.59375 C 8.8680818,3.859375 7.453125,5.2743627 7.453125,7 c 0,1.7256373 1.4149568,3.140625 3.140625,3.140625 h 5.226563 v 0.578125 c 0,0.6603 -0.450502,1.109375 -0.931641,1.109375 H 3.1113281 c -0.4811391,0 -0.9316406,-0.44907 -0.9316406,-1.109375 v -7.4375 c 0,-0.6601694 0.4505392,-1.109375 0.9316406,-1.109375 z m 7.4824219,3.1875 h 5.226563 v 3.28125 H 10.59375 C 9.6787008,8.640625 8.953125,7.91498 8.953125,7 c 0,-0.91498 0.7255758,-1.640625 1.640625,-1.640625 z m 0,0.890625 A 0.75,0.75 0 0 0 9.84375,7 v 0.00781 a 0.75,0.75 0 0 0 0.75,0.75 0.75,0.75 0 0 0 0.75,-0.75 V 7 a 0.75,0.75 0 0 0 -0.75,-0.75 z" id="bpath394"/>
</symbol><symbol viewBox="0 0 17 18" id="close" xmlns="http://www.w3.org/2000/svg">
  <defs id="cdefs10"/>
  <sodipodi:namedview id="cnamedview8" pagecolor="#ffffff" bordercolor="#000000" borderopacity="0.25" xmlns:inkscape="http://www.inkscape.org/namespaces/inkscape" inkscape:showpageshadow="2" inkscape:pageopacity="0.0" inkscape:pagecheckerboard="0" inkscape:deskcolor="#d1d1d1" showgrid="false" inkscape:zoom="44.666667" inkscape:cx="8.5074627" inkscape:cy="9.011194" inkscape:window-width="1920" inkscape:window-height="991" inkscape:window-x="-9" inkscape:window-y="-9" inkscape:window-maximized="1" inkscape:current-layer="svg6" xmlns:sodipodi="http://sodipodi.sourceforge.net/DTD/sodipodi-0.dtd"/>
  <path d="M 16.171875,0.25976563 A 1,1 0 0 0 14.759766,0.328125 l -14.50000037,16 a 1,1 0 0 0 0.0683594,1.414062 1,1 0 0 0 1.4140625,-0.07031 l 14.4999995,-16 a 1,1 0 0 0 -0.07031,-1.41210937 z" id="cpath396"/>
  <path d="M 1.0488281,0.00195313 A 1,1 0 0 0 0.328125,0.25976563 1,1 0 0 0 0.25976563,1.671875 L 7.4433594,9.5976563 14.759766,17.671875 a 1,1 0 0 0 1.412109,0.06836 1,1 0 0 0 0.07031,-1.412109 L 8.9257813,8.2558594 1.7421875,0.328125 A 1,1 0 0 0 1.0488281,0.00195313 Z" id="cpath405"/>
</symbol><symbol viewBox="0 0 12 12" id="cross" xmlns="http://www.w3.org/2000/svg">
<path fill-rule="evenodd" clip-rule="evenodd" d="M0 6C0 5.44772 0.447715 5 1 5H11C11.5523 5 12 5.44772 12 6C12 6.55228 11.5523 7 11 7H1C0.447715 7 0 6.55228 0 6Z"/>
<path fill-rule="evenodd" clip-rule="evenodd" d="M6 12C5.44772 12 5 11.5523 5 11L5 1C5 0.447715 5.44772 0 6 0C6.55228 0 7 0.447715 7 1L7 11C7 11.5523 6.55228 12 6 12Z"/>
</symbol><symbol viewBox="0 0 19 20" id="date" xmlns="http://www.w3.org/2000/svg">
<path fill-rule="evenodd" clip-rule="evenodd" d="M12.8311 0C13.2162 0 13.5288 0.312557 13.5288 0.697671L13.5292 1.48633C14.8874 1.57945 16.0155 2.04469 16.8139 2.84473C17.6855 3.72008 18.1441 4.97867 18.1395 6.48844V14.9749C18.1395 18.0744 16.1711 20 13.0037 20H5.13579C1.96836 20 0 18.0475 0 14.9042V6.48658C0 3.56305 1.75539 1.68645 4.61829 1.48665L4.61886 0.697671C4.61886 0.312557 4.93142 0 5.31653 0C5.70165 0 6.0142 0.312557 6.0142 0.697671L6.01393 1.46883H12.133L12.1334 0.697671C12.1334 0.312557 12.446 0 12.8311 0ZM16.7441 8.28275H1.39534V14.9042C1.39534 17.2912 2.72371 18.6047 5.13579 18.6047H13.0037C15.4157 18.6047 16.7441 17.3154 16.7441 14.9749L16.7441 8.28275ZM13.2104 14.136C13.5955 14.136 13.908 14.4486 13.908 14.8337C13.908 15.2188 13.5955 15.5314 13.2104 15.5314C12.8252 15.5314 12.509 15.2188 12.509 14.8337C12.509 14.4486 12.8169 14.136 13.202 14.136H13.2104ZM9.08247 14.136C9.46758 14.136 9.78014 14.4486 9.78014 14.8337C9.78014 15.2188 9.46758 15.5314 9.08247 15.5314C8.69736 15.5314 8.38108 15.2188 8.38108 14.8337C8.38108 14.4486 8.68898 14.136 9.0741 14.136H9.08247ZM4.94593 14.136C5.33105 14.136 5.6436 14.4486 5.6436 14.8337C5.6436 15.2188 5.33105 15.5314 4.94593 15.5314C4.56082 15.5314 4.24361 15.2188 4.24361 14.8337C4.24361 14.4486 4.55244 14.136 4.93756 14.136H4.94593ZM13.2104 10.5205C13.5955 10.5205 13.908 10.8331 13.908 11.2182C13.908 11.6033 13.5955 11.9159 13.2104 11.9159C12.8252 11.9159 12.509 11.6033 12.509 11.2182C12.509 10.8331 12.8169 10.5205 13.202 10.5205H13.2104ZM9.08247 10.5205C9.46758 10.5205 9.78014 10.8331 9.78014 11.2182C9.78014 11.6033 9.46758 11.9159 9.08247 11.9159C8.69736 11.9159 8.38108 11.6033 8.38108 11.2182C8.38108 10.8331 8.68898 10.5205 9.0741 10.5205H9.08247ZM4.94593 10.5205C5.33105 10.5205 5.6436 10.8331 5.6436 11.2182C5.6436 11.6033 5.33105 11.9159 4.94593 11.9159C4.56082 11.9159 4.24361 11.6033 4.24361 11.2182C4.24361 10.8331 4.55244 10.5205 4.93756 10.5205H4.94593ZM12.133 2.86417H6.01393L6.0142 3.75905C6.0142 4.14417 5.70165 4.45672 5.31653 4.45672C4.93142 4.45672 4.61886 4.14417 4.61886 3.75905L4.61837 2.88529C2.53444 3.06035 1.39534 4.32357 1.39534 6.48658V6.88741H16.7441L16.7441 6.48658C16.7478 5.33774 16.439 4.44472 15.826 3.83077C15.2879 3.29106 14.5012 2.96873 13.5296 2.88574L13.5288 3.75905C13.5288 4.14417 13.2162 4.45672 12.8311 4.45672C12.446 4.45672 12.1334 4.14417 12.1334 3.75905L12.133 2.86417Z"/>
</symbol><symbol viewBox="0 0 16 18" id="delete" xmlns="http://www.w3.org/2000/svg">
  <defs id="fdefs8"/>
  <sodipodi:namedview id="fnamedview6" pagecolor="#ffffff" bordercolor="#000000" borderopacity="0.25" xmlns:inkscape="http://www.inkscape.org/namespaces/inkscape" inkscape:showpageshadow="2" inkscape:pageopacity="0.0" inkscape:pagecheckerboard="0" inkscape:deskcolor="#d1d1d1" showgrid="false" inkscape:zoom="44.666667" inkscape:cx="7.9925373" inkscape:cy="9.011194" inkscape:window-width="1920" inkscape:window-height="991" inkscape:window-x="-9" inkscape:window-y="-9" inkscape:window-maximized="1" inkscape:current-layer="svg4" xmlns:sodipodi="http://sodipodi.sourceforge.net/DTD/sodipodi-0.dtd"/>
  <path d="M 6.5917969,0.14648437 C 5.2047,0.19102717 4.125,1.3626832 4.125,2.7304688 v 0.095703 C 3.3880063,2.895893 2.6521051,2.9684427 1.9199219,3.078125 1.9017778,3.080843 1.883375,3.0812419 1.8652344,3.0839844 1.574162,3.1273899 1.285064,3.1725074 0.99609375,3.2226563 a 0.75,0.75 0 0 0 -0.609375,0.8671874 0.75,0.75 0 0 0 0.86718745,0.6113282 c 0.012349,-0.00214 0.024761,-0.00373 0.037109,-0.00586 l 0.828125,10.7558595 c 0.050832,0.659191 0.3487408,1.275475 0.8339844,1.724609 0.4852205,0.4491 1.1219766,0.699499 1.7832031,0.699219 h 6.5273439 c 0.661274,2.8e-4 1.298019,-0.25014 1.783203,-0.699219 0.485238,-0.449129 0.783178,-1.065386 0.833984,-1.724609 L 14.708984,4.6972656 c 0.01232,0.00212 0.0248,0.00372 0.03711,0.00586 A 0.75,0.75 0 0 0 15.613281,4.0917969 0.75,0.75 0 0 0 15.003906,3.2246094 c -0.288967,-0.050154 -0.577537,-0.096588 -0.867187,-0.140625 a 0.75,0.75 0 0 0 -0.002,0 c -0.01814,-0.00274 -0.03655,-0.00314 -0.05469,-0.00586 C 13.34793,2.9684334 12.612,2.8958905 11.875,2.8261719 v -0.095703 c 0,-1.3682744 -1.080102,-2.53945601 -2.4667969,-2.58398443 -0.9372974,-0.0299576 -1.8771546,-0.029916 -2.8144531,0 z M 6.640625,1.6464844 c 0.9060103,-0.028958 1.8127397,-0.028958 2.71875,0 C 9.9384941,1.6646423 10.375,2.1327169 10.375,2.7304688 v 0.015625 c -1.5821432,-0.091129 -3.1678568,-0.091129 -4.75,0 v -0.015625 c 0,-0.5965809 0.4369687,-1.0658404 1.015625,-1.0839844 z M 4.9335937,4.2421875 c 2.0417579,-0.1577967 4.0910547,-0.1577967 6.1328123,0 0.720463,0.055777 1.438112,0.1507345 2.154297,0.2460937 L 12.384766,15.335938 c -0.02179,0.282775 -0.149261,0.547563 -0.357422,0.740234 -0.208215,0.19272 -0.479948,0.298948 -0.763672,0.298828 H 4.7363281 C 4.4527156,16.37512 4.1808551,16.268872 3.9726563,16.076172 3.7645006,15.883506 3.6370424,15.618745 3.6152344,15.335938 L 2.7792969,4.4882812 C 3.4955105,4.3929223 4.2131356,4.2979639 4.9335937,4.2421875 Z M 5.6875,5.75 A 0.75,0.75 0 0 0 4.9667969,6.5292969 L 5.2558594,14.029297 A 0.75,0.75 0 0 0 6.0332031,14.75 0.75,0.75 0 0 0 6.7539062,13.970703 L 6.4667969,6.4707031 A 0.75,0.75 0 0 0 5.6875,5.75 Z m 4.625,0 A 0.75,0.75 0 0 0 9.5332031,6.4707031 L 9.2460938,13.970703 A 0.75,0.75 0 0 0 9.9667969,14.75 0.75,0.75 0 0 0 10.744141,14.029297 L 11.033203,6.5292969 A 0.75,0.75 0 0 0 10.3125,5.75 Z" id="fpath394"/>
</symbol><symbol viewBox="0 0 32 32" id="details" xmlns="http://www.w3.org/2000/svg">
<circle cx="16" cy="16" r="16"/>
<path d="M17.5214 15H12.1426C11.5116 15 11 15.5116 11 16.1426C11 16.7736 11.5116 17.2851 12.1426 17.2851H17.5214C18.1524 17.2851 18.664 16.7736 18.664 16.1426C18.664 15.5116 18.1525 15 17.5214 15ZM20.5214 19.5704H12.1426C11.5116 19.5704 11 20.0819 11 20.7129C11 21.3439 11.5116 21.8555 12.1426 21.8555H20.5214C21.1524 21.8555 21.664 21.3439 21.664 20.7129C21.664 20.0819 21.1525 19.5704 20.5214 19.5704Z"/>
<path d="M12.1426 10H20.5214C21.1525 10 21.664 10.5116 21.664 11.1426C21.664 11.7736 21.1524 12.2851 20.5214 12.2851H12.1426C11.5116 12.2851 11 11.7736 11 11.1426C11 10.5116 11.5116 10 12.1426 10Z"/>
</symbol><symbol viewBox="0 0 32 32" id="document" xmlns="http://www.w3.org/2000/svg">
<path d="M16 0C7.16344 0 0 7.16344 0 16C0 24.8366 7.16344 32 16 32C24.8366 32 32 24.8366 32 16C32 7.16344 24.8366 0 16 0ZM24.3789 23.4649C24.3789 24.7269 23.3557 25.75 22.0938 25.75H9.90625C8.64419 25.75 7.62113 24.7269 7.62113 23.4649V8.53512C7.62113 7.27306 8.64425 6.25 9.90625 6.25H16C17.2621 6.25 18.2851 7.27312 18.2851 8.53512V10.0586C18.2851 11.3206 19.3083 12.3437 20.5702 12.3437H22.0938C23.3558 12.3437 24.3789 13.3668 24.3789 14.6288V23.4649Z"/>
<path d="M20.1894 15.8476H11.8105C11.1795 15.8476 10.668 16.3592 10.668 16.9902C10.668 17.6212 11.1795 18.1328 11.8105 18.1328H20.1894C20.8204 18.1328 21.332 17.6212 21.332 16.9902C21.332 16.3592 20.8205 15.8476 20.1894 15.8476ZM20.1894 20.418H11.8105C11.1795 20.418 10.668 20.9296 10.668 21.5606C10.668 22.1916 11.1795 22.7031 11.8105 22.7031H20.1894C20.8204 22.7031 21.332 22.1916 21.332 21.5606C21.332 20.9296 20.8205 20.418 20.1894 20.418Z"/>
</symbol><symbol viewBox="0 0 15 15" id="edit" xmlns="http://www.w3.org/2000/svg">
  <defs id="idefs8"/>
  <sodipodi:namedview id="inamedview6" pagecolor="#ffffff" bordercolor="#000000" borderopacity="0.25" xmlns:inkscape="http://www.inkscape.org/namespaces/inkscape" inkscape:showpageshadow="2" inkscape:pageopacity="0.0" inkscape:pagecheckerboard="0" inkscape:deskcolor="#d1d1d1" showgrid="false" inkscape:zoom="53.6" inkscape:cx="7.5" inkscape:cy="7.5093284" inkscape:window-width="1920" inkscape:window-height="991" inkscape:window-x="-9" inkscape:window-y="-9" inkscape:window-maximized="1" inkscape:current-layer="svg4" xmlns:sodipodi="http://sodipodi.sourceforge.net/DTD/sodipodi-0.dtd"/>
  <path d="m 12.421875,0.65625 c -0.509484,0 -0.999135,0.2022602 -1.359375,0.5625 l -1.052734,1.0546875 h -0.002 a 0.750075,0.750075 0 0 0 0,0.00195 0.75,0.75 0 0 0 -0.002,0.00195 L 2.0820313,10.199219 C 1.6637276,10.617738 1.3563362,11.13412 1.1875,11.701172 l -0.5,1.677734 A 0.750075,0.750075 0 0 0 1.6210937,14.3125 l 1.6777344,-0.5 C 3.8658978,13.64367 4.3822606,13.336211 4.8007812,12.917969 L 13.78125,3.9375 c 0.360232,-0.3602318 0.5625,-0.8498803 0.5625,-1.359375 0,-0.5094947 -0.202268,-0.9991432 -0.5625,-1.359375 -0.36024,-0.3602398 -0.849927,-0.5625 -1.359375,-0.5625 z m 0,1.5 c 0.112151,0 0.219468,0.043687 0.298828,0.1230469 0.07937,0.079368 0.123047,0.1866435 0.123047,0.2988281 0,0.1121846 -0.04368,0.2194603 -0.123047,0.2988281 L 12.195313,3.4023438 11.597656,2.8046875 12.123047,2.2792969 C 12.202407,2.1999371 12.30956,2.15625 12.421875,2.15625 Z M 10.539063,3.8652344 11.134766,4.4628906 3.7402344,11.857422 C 3.4979157,12.099579 3.1994832,12.277231 2.8710938,12.375 L 2.5214844,12.478516 2.625,12.130859 a 0.750075,0.750075 0 0 0 0,-0.002 c 0.097764,-0.328347 0.2754225,-0.62686 0.5175781,-0.86914 z" id="ipath2"/>
</symbol><symbol viewBox="0 0 23 21" id="email" xmlns="http://www.w3.org/2000/svg">
<path fill-rule="evenodd" clip-rule="evenodd" d="M16.1007 0C19.5246 0 22.1064 2.79363 22.1064 6.49826V13.56C22.1064 15.456 21.436 17.169 20.2176 18.3843C19.1246 19.4732 17.7067 20.05 16.1171 20.05H5.98621C4.39969 20.05 2.98282 19.4742 1.88881 18.3843C0.67039 17.169 0 15.456 0 13.56V6.49826C0 2.79363 2.58182 0 6.00575 0H16.1007ZM16.1007 1.54231H6.00575C3.41981 1.54231 1.54231 3.62648 1.54231 6.49826V13.56C1.54231 15.0437 2.0523 16.369 2.97768 17.2913C3.77557 18.0882 4.81714 18.5077 5.98929 18.5077H16.1007C16.1027 18.5056 16.1109 18.5077 16.1171 18.5077C17.2903 18.5077 18.3308 18.0882 19.1287 17.2913C20.0551 16.369 20.5641 15.0437 20.5641 13.56V6.49826C20.5641 3.62648 18.6866 1.54231 16.1007 1.54231ZM17.7211 6.30166C17.9895 6.63172 17.9391 7.11703 17.609 7.38642L13.0397 11.1003C12.4618 11.5589 11.7709 11.7882 11.081 11.7882C10.3931 11.7882 9.70728 11.5609 9.13355 11.1065L4.52205 7.38848C4.18994 7.12114 4.13853 6.6348 4.40483 6.30372C4.67319 5.97367 5.1585 5.92123 5.48959 6.18753L10.097 9.90141C10.6759 10.36 11.4912 10.36 12.0742 9.8973L16.6353 6.18959C16.9664 5.91917 17.4517 5.97058 17.7211 6.30166Z"/>
</symbol><symbol viewBox="0 0 68 68" id="email_big" xmlns="http://www.w3.org/2000/svg">
<path fill-rule="evenodd" clip-rule="evenodd" d="M32.0135 1.08211C33.4023 0.949843 34.8043 0.949843 36.1931 1.08211C40.2372 1.46238 43.7852 3.24467 47.6441 6.1347C51.4335 8.97512 55.752 13.0655 61.294 18.3165L61.7239 18.7232C64.0948 20.9684 65.7415 22.5258 66.7269 24.533C66.912 24.9066 67.0741 25.2902 67.2196 25.6804C67.9999 27.7768 67.9966 30.0452 67.9966 33.3089V45.7552C67.9966 50.2754 67.9966 53.9226 67.6131 56.7895C67.2096 59.7655 66.3565 62.272 64.3659 64.2626C62.3753 66.2532 59.8688 67.1063 56.8928 67.5097C54.026 67.8933 50.3787 67.8933 45.8585 67.8933H22.3481C17.8279 67.8933 14.1806 67.8933 11.3137 67.5097C8.33775 67.1063 5.83129 66.2532 3.84068 64.2626C1.85007 62.272 0.996948 59.7655 0.596841 56.7895C0.209961 53.9226 0.209961 50.2754 0.209961 45.7552V33.3056C0.209961 30.0386 0.209961 27.7735 0.987028 25.6771C1.13252 25.2869 1.29785 24.9033 1.47972 24.5297C2.46511 22.5225 4.11183 20.9651 6.48601 18.7199L6.91588 18.3132C12.4579 13.0622 16.7731 8.97182 20.5625 6.13139C24.4214 3.24136 27.9694 1.45907 32.0135 1.0788V1.08211ZM35.7302 6.01896C34.648 5.9171 33.5586 5.9171 32.4764 6.01896C29.7054 6.28019 27.0204 7.49043 23.5352 10.106C20.0037 12.7513 15.8935 16.6433 10.2093 22.0265C8.55599 23.5906 7.56068 24.5528 6.90265 25.3068L13.5226 29.1392C13.5391 28.8548 13.5623 28.577 13.5887 28.3158C13.7475 26.7518 14.0947 25.2968 14.9676 23.9874C15.6323 22.9954 16.4854 22.1423 17.4807 21.4776C18.7868 20.6047 20.2417 20.2575 21.8058 20.0988C23.3004 19.9466 25.1488 19.9466 27.361 19.9466H40.8423C43.0577 19.9466 44.9062 19.9466 46.4008 20.0988C47.9648 20.2575 49.4198 20.6047 50.7292 21.4776C51.7212 22.1423 52.5743 22.9954 53.239 23.9907C54.1119 25.2968 54.4591 26.7518 54.6179 28.3158C54.6443 28.5803 54.6675 28.8548 54.684 29.1392L61.3006 25.3068C60.6459 24.5528 59.6473 23.5873 58.0006 22.0265C52.3131 16.6433 48.2029 12.7513 44.6714 10.106C41.1829 7.49374 38.5012 6.28019 35.7302 6.01896ZM49.8067 31.9598C46.3809 33.9272 43.7059 35.4152 41.378 36.4701C38.4747 37.7927 36.2923 38.3549 34.1033 38.3549C31.9143 38.3549 29.7319 37.7927 26.8286 36.4701C24.5007 35.4119 21.8256 33.9272 18.3999 31.9598C18.4099 30.6503 18.4396 29.6451 18.5223 28.8184C18.6413 27.6446 18.8529 27.1023 19.0943 26.7451C19.396 26.2936 19.7836 25.906 20.2351 25.6044C20.5923 25.363 21.1345 25.1513 22.3084 25.0323C23.522 24.91 25.1191 24.9066 27.49 24.9066H40.7166C43.0908 24.9066 44.6846 24.9066 45.8982 25.0323C47.072 25.1513 47.6143 25.363 47.9748 25.6044C48.4245 25.902 48.8113 26.2921 49.1123 26.7451C49.3536 27.1023 49.5653 27.6446 49.6843 28.8184C49.767 29.6451 49.7967 30.6503 49.8067 31.9598ZM5.21625 30.0617C5.17657 30.9578 5.16996 32.1251 5.16996 33.7387V45.5733C5.16996 50.3184 5.17657 53.6283 5.51055 56.1282C5.83791 58.5553 6.43641 59.8383 7.34905 60.7542C8.265 61.6702 9.54799 62.2654 11.9784 62.5927C14.4716 62.9267 17.7849 62.9333 22.53 62.9333H45.6766C50.4217 62.9333 53.7317 62.9267 56.2315 62.5927C58.6586 62.2654 59.9416 61.6669 60.8575 60.7542C61.7735 59.8383 62.3687 58.5553 62.696 56.1249C63.03 53.6284 63.0366 50.3184 63.0366 45.5733V33.7387C63.0366 32.1251 63.03 30.9611 62.9903 30.0617L55.1139 34.6249C50.3589 37.3761 46.6323 39.532 43.4281 40.987C40.1545 42.475 37.2446 43.3149 34.1033 43.3149C30.962 43.3149 28.0554 42.475 24.7785 40.987C21.571 39.532 17.8477 37.3761 13.0927 34.6216L5.21625 30.0584V30.0617Z"/>
</symbol><symbol viewBox="0 0 20 20" id="link" xmlns="http://www.w3.org/2000/svg">
<path d="M10.1098 13.39L6.22984 17.27C5.76007 17.7234 5.1327 17.9767 4.47984 17.9767C3.82698 17.9767 3.1996 17.7234 2.72984 17.27C2.49944 17.0405 2.31663 16.7678 2.19189 16.4675C2.06715 16.1672 2.00294 15.8452 2.00294 15.52C2.00294 15.1948 2.06715 14.8728 2.19189 14.5725C2.31663 14.2722 2.49944 13.9995 2.72984 13.77L6.60984 9.89C6.79814 9.7017 6.90393 9.44631 6.90393 9.18C6.90393 8.9137 6.79814 8.65831 6.60984 8.47C6.42153 8.2817 6.16614 8.17591 5.89984 8.17591C5.63353 8.17591 5.37814 8.2817 5.18984 8.47L1.30984 12.36C0.528193 13.2108 0.105457 14.3307 0.129911 15.4858C0.154365 16.6408 0.624118 17.7418 1.44107 18.5588C2.25802 19.3757 3.359 19.8455 4.51408 19.8699C5.66917 19.8944 6.78904 19.4716 7.63984 18.69L11.5298 14.81C11.7181 14.6217 11.8239 14.3663 11.8239 14.1C11.8239 13.8337 11.7181 13.5783 11.5298 13.39C11.3415 13.2017 11.0861 13.0959 10.8198 13.0959C10.5535 13.0959 10.2981 13.2017 10.1098 13.39ZM18.6898 1.31C17.8486 0.47401 16.7108 0.00479126 15.5248 0.00479126C14.3389 0.00479126 13.2011 0.47401 12.3598 1.31L8.46984 5.19C8.3766 5.28324 8.30264 5.39393 8.25218 5.51575C8.20172 5.63758 8.17575 5.76814 8.17575 5.9C8.17575 6.03186 8.20172 6.16243 8.25218 6.28425C8.30264 6.40607 8.3766 6.51676 8.46984 6.61C8.56308 6.70324 8.67377 6.7772 8.79559 6.82766C8.91741 6.87812 9.04798 6.90409 9.17984 6.90409C9.3117 6.90409 9.44226 6.87812 9.56409 6.82766C9.68591 6.7772 9.7966 6.70324 9.88984 6.61L13.7698 2.73C14.2396 2.27663 14.867 2.02326 15.5198 2.02326C16.1727 2.02326 16.8001 2.27663 17.2698 2.73C17.5002 2.95949 17.683 3.23221 17.8078 3.53252C17.9325 3.83283 17.9967 4.15482 17.9967 4.48C17.9967 4.80519 17.9325 5.12717 17.8078 5.42748C17.683 5.72779 17.5002 6.00052 17.2698 6.23L13.3898 10.11C13.2961 10.203 13.2217 10.3136 13.1709 10.4354C13.1202 10.5573 13.094 10.688 13.094 10.82C13.094 10.952 13.1202 11.0827 13.1709 11.2046C13.2217 11.3264 13.2961 11.437 13.3898 11.53C13.4828 11.6237 13.5934 11.6981 13.7153 11.7489C13.8371 11.7997 13.9678 11.8258 14.0998 11.8258C14.2318 11.8258 14.3626 11.7997 14.4844 11.7489C14.6063 11.6981 14.7169 11.6237 14.8098 11.53L18.6898 7.64C19.5258 6.79878 19.995 5.66098 19.995 4.475C19.995 3.28903 19.5258 2.15122 18.6898 1.31ZM6.82984 13.17C6.92328 13.2627 7.03409 13.336 7.15593 13.3858C7.27777 13.4355 7.40823 13.4608 7.53984 13.46C7.67144 13.4608 7.80191 13.4355 7.92374 13.3858C8.04558 13.336 8.1564 13.2627 8.24984 13.17L13.1698 8.25C13.3581 8.0617 13.4639 7.8063 13.4639 7.54C13.4639 7.2737 13.3581 7.01831 13.1698 6.83C12.9815 6.6417 12.7261 6.53591 12.4598 6.53591C12.1935 6.53591 11.9381 6.6417 11.7498 6.83L6.82984 11.75C6.73611 11.843 6.66171 11.9536 6.61095 12.0754C6.56018 12.1973 6.53404 12.328 6.53404 12.46C6.53404 12.592 6.56018 12.7227 6.61095 12.8446C6.66171 12.9664 6.73611 13.077 6.82984 13.17Z"/>
</symbol><symbol viewBox="0 0 14 24" id="phone" xmlns="http://www.w3.org/2000/svg">
  <defs id="mdefs8"/>
  <sodipodi:namedview id="mnamedview6" pagecolor="#ffffff" bordercolor="#000000" borderopacity="0.25" xmlns:inkscape="http://www.inkscape.org/namespaces/inkscape" inkscape:showpageshadow="2" inkscape:pageopacity="0.0" inkscape:pagecheckerboard="0" inkscape:deskcolor="#d1d1d1" showgrid="false" inkscape:zoom="33.5" inkscape:cx="6.9850746" inkscape:cy="12.014925" inkscape:window-width="1920" inkscape:window-height="991" inkscape:window-x="-9" inkscape:window-y="-9" inkscape:window-maximized="1" inkscape:current-layer="svg4" xmlns:sodipodi="http://sodipodi.sourceforge.net/DTD/sodipodi-0.dtd"/>
  <path d="M 3.25,0.75 C 2.45464,0.75 1.6913117,1.0665008 1.1289062,1.6289062 0.56650075,2.1913117 0.25,2.95464 0.25,3.75 v 16.5 c 0,0.795333 0.31652595,1.55866 0.8789062,2.121094 C 1.6912867,22.933394 2.4545981,23.25 3.25,23.25 h 7.5 c 0.795375,0 1.558685,-0.316631 2.121094,-0.878906 C 13.433369,21.808685 13.75,21.045375 13.75,20.25 V 3.75 C 13.75,2.9545981 13.433394,2.1912867 12.871094,1.6289062 12.30866,1.0665259 11.545333,0.75 10.75,0.75 H 8.5 5.5 Z m 0,1.5 h 1.5 V 3 A 0.750075,0.750075 0 0 0 5.5,3.75 h 3 A 0.750075,0.750075 0 0 0 9.25,3 V 2.25 h 1.5 c 0.398065,0 0.778981,0.1579143 1.060547,0.4394531 C 12.092046,2.9709919 12.25,3.3519231 12.25,3.75 v 16.5 c 0,0.398024 -0.157929,0.778956 -0.439453,1.060547 C 11.528956,21.592071 11.148024,21.75 10.75,21.75 H 3.25 C 2.8519231,21.75 2.4709919,21.592046 2.1894531,21.310547 1.9079143,21.028981 1.75,20.648065 1.75,20.25 V 3.75 C 1.75,3.3518812 1.9079395,2.9709668 2.1894531,2.6894531 2.4709668,2.4079395 2.8518812,2.25 3.25,2.25 Z M 5.5,19.5 A 0.75,0.75 0 0 0 4.75,20.25 0.75,0.75 0 0 0 5.5,21 h 3 A 0.75,0.75 0 0 0 9.25,20.25 0.75,0.75 0 0 0 8.5,19.5 Z" id="mpath394"/>
</symbol><symbol viewBox="0 0 17 16" id="renew" xmlns="http://www.w3.org/2000/svg">
  <defs id="ndefs8"/>
  <sodipodi:namedview id="nnamedview6" pagecolor="#ffffff" bordercolor="#000000" borderopacity="0.25" xmlns:inkscape="http://www.inkscape.org/namespaces/inkscape" inkscape:showpageshadow="2" inkscape:pageopacity="0.0" inkscape:pagecheckerboard="0" inkscape:deskcolor="#d1d1d1" showgrid="false" inkscape:zoom="50.25" inkscape:cx="8.4975124" inkscape:cy="8.0099502" inkscape:window-width="1920" inkscape:window-height="991" inkscape:window-x="-9" inkscape:window-y="-9" inkscape:window-maximized="1" inkscape:current-layer="svg4" xmlns:sodipodi="http://sodipodi.sourceforge.net/DTD/sodipodi-0.dtd"/>
  <path d="M 8.5136719,0.25 C 7.8500598,0.25004866 7.185522,0.33647679 6.5390625,0.50976562 5.2461351,0.85634589 4.0674525,1.5377279 3.1210938,2.484375 2.1747362,3.431032 1.4946185,4.6093166 1.1484375,5.9023437 a 0.75,0.75 0 0 0 0.5292969,0.9199219 0.75,0.75 0 0 0 0.9199219,-0.53125 C 2.8757546,5.2522851 3.4213998,4.3054032 4.1816406,3.5449219 4.9418802,2.7844507 5.8890841,2.2374035 6.9277344,1.9589844 c 1.0386386,-0.2784157 2.1312149,-0.2782668 3.1699216,0 1.038658,0.2782582 1.985783,0.8255907 2.746094,1.5859375 l 1.371094,1.3710937 h -2.34961 a 0.75,0.75 0 0 0 -0.75,0.75 0.75,0.75 0 0 0 0.75,0.75 h 4.160157 a 0.750075,0.750075 0 0 0 0.53125,-0.2207031 0.750075,0.750075 0 0 0 0.21875,-0.53125 V 1.5058594 a 0.75,0.75 0 0 0 -0.75,-0.75000003 0.75,0.75 0 0 0 -0.75,0.75000003 V 3.8554688 L 13.90625,2.484375 a 0.750075,0.750075 0 0 0 0,-0.00195 C 12.959763,1.5358904 11.779268,0.85614675 10.486328,0.50976562 9.8398328,0.3365713 9.177284,0.24995134 8.5136719,0.25 Z m 6.8339841,8.6816406 a 0.75,0.75 0 0 0 -0.917968,0.5292969 c -0.278055,1.0386825 -0.825719,1.9856965 -1.585938,2.7460935 -0.760252,0.76052 -1.707445,1.307521 -2.746094,1.585938 -1.0386778,0.278422 -2.1312319,0.278242 -3.1699216,0 C 5.889004,13.514627 4.9419917,12.969309 4.1816406,12.208984 L 2.8105469,10.835938 h 2.3496093 a 0.75,0.75 0 0 0 0.75,-0.75 0.75,0.75 0 0 0 -0.75,-0.7500005 h -4.15625 a 0.75,0.75 0 0 0 -0.00391,0 0.75,0.75 0 0 0 -0.15429687,0.064453 0.75,0.75 0 0 0 -0.375,0.1542969 0.75,0.75 0 0 0 0,0.00195 A 0.75,0.75 0 0 0 0.25,10.085938 v 4.160156 a 0.75,0.75 0 0 0 0.75,0.75 0.75,0.75 0 0 0 0.75,-0.75 v -2.34961 l 1.3710938,1.373047 c 0.9465072,0.946474 2.1250414,1.626199 3.4179687,1.972657 1.292968,0.346357 2.654326,0.346577 3.9472655,0 1.292949,-0.346583 2.471623,-1.027931 3.417969,-1.97461 0.946379,-0.946601 1.626511,-2.124933 1.972656,-3.4179686 A 0.75,0.75 0 0 0 15.347656,8.9316406 Z" id="npath2"/>
</symbol><symbol viewBox="0 0 28 28" id="select" xmlns="http://www.w3.org/2000/svg">
<path d="M15.9998 6C14.9332 6 13.9998 6.93334 13.9998 8C13.9998 9.06667 14.9332 10 15.9998 10C17.0665 10 17.9998 9.06667 17.9998 8C17.9998 6.93334 17.0665 6 15.9998 6ZM23.3332 0.666672H4.6665C2.39984 0.666672 0.666504 2.4 0.666504 4.66667V23.3333C0.666504 25.6 2.39984 27.3333 4.6665 27.3333H23.3332C25.5998 27.3333 27.3332 25.6 27.3332 23.3333V4.66667C27.3332 2.4 25.5998 0.666672 23.3332 0.666672ZM24.6665 16.5333L22.1332 14C20.5332 12.5333 17.9998 12.5333 16.5332 14L15.3332 15.2L11.4665 11.3333C9.8665 9.86667 7.33317 9.86667 5.8665 11.3333L3.33317 13.8667V4.66667C3.33317 3.86667 3.8665 3.33334 4.6665 3.33334H23.3332C24.1332 3.33334 24.6665 3.86667 24.6665 4.66667V16.5333Z"/>
</symbol><symbol viewBox="0 0 16 14" id="support" xmlns="http://www.w3.org/2000/svg">
  <defs id="pdefs8"/>
  <sodipodi:namedview id="pnamedview6" pagecolor="#ffffff" bordercolor="#000000" borderopacity="0.25" xmlns:inkscape="http://www.inkscape.org/namespaces/inkscape" inkscape:showpageshadow="2" inkscape:pageopacity="0.0" inkscape:pagecheckerboard="0" inkscape:deskcolor="#d1d1d1" showgrid="false" inkscape:zoom="57.428571" inkscape:cx="7.9925373" inkscape:cy="7.0087065" inkscape:window-width="1920" inkscape:window-height="991" inkscape:window-x="-9" inkscape:window-y="-9" inkscape:window-maximized="1" inkscape:current-layer="svg4" xmlns:sodipodi="http://sodipodi.sourceforge.net/DTD/sodipodi-0.dtd"/>
  <path d="M 8,0.25 C 6.3687504,0.25 4.7639416,0.36899124 3.1953125,0.59960937 1.7636841,0.81019161 0.75,2.0760911 0.75,3.4941406 v 4.0117188 c 0,1.4175998 1.0136841,2.6839486 2.4453125,2.8945316 0.5134784,0.07558 1.0345358,0.122471 1.5546875,0.173828 V 13 a 0.750075,0.750075 0 0 0 1.28125,0.53125 L 8.7480469,10.8125 c 0.048416,-0.04717 0.1121669,-0.07447 0.1796875,-0.07617 a 0.750075,0.750075 0 0 0 0.00195,0 C 10.226849,10.70041 11.520855,10.588954 12.804688,10.400391 14.236007,10.189854 15.25,8.9243729 15.25,7.5058594 V 3.4941406 C 15.25,2.0756271 14.236007,0.81014612 12.804688,0.59960937 11.21385,0.36611527 9.607876,0.24949554 8,0.25 Z m 0,1.5 C 9.5348209,1.7495185 11.067378,1.8610989 12.585938,2.0839844 13.266616,2.1841073 13.75,2.7766563 13.75,3.4941406 v 4.0117188 c 0,0.7174843 -0.483384,1.3100333 -1.164062,1.4101562 C 11.360572,9.0959917 10.126768,9.203999 8.8886719,9.2382813 8.4383591,9.2501314 8.008953,9.4325632 7.6894531,9.75 A 0.750075,0.750075 0 0 0 7.6875,9.7519531 L 6.25,11.1875 V 9.9042969 A 0.750075,0.750075 0 0 0 5.5585937,9.15625 C 4.8368209,9.1002314 4.1215167,9.0201529 3.4140625,8.9160156 2.733693,8.8159382 2.25,8.2215774 2.25,7.5058594 V 3.4941406 C 2.25,2.7775323 2.733693,2.1840618 3.4140625,2.0839844 4.9107504,1.863943 6.4419128,1.75 8,1.75 Z" id="ppath2"/>
</symbol><symbol viewBox="0 0 51 51" id="upload" xmlns="http://www.w3.org/2000/svg">
<path d="M25.8672 49.3129C26.4194 49.3129 26.8672 48.8652 26.8672 48.3129V27.7269L30.4532 31.3129C30.8436 31.7034 31.4767 31.7034 31.8672 31.3129C32.2576 30.9225 32.2576 30.2894 31.8672 29.8989L26.5743 24.606C26.1837 24.2155 25.5506 24.2155 25.1601 24.606L19.8672 29.8989C19.4767 30.2894 19.4767 30.9225 19.8672 31.3129C20.2576 31.7034 20.8907 31.7034 21.2812 31.3129L24.8672 27.7269V48.3129C24.8672 48.8652 25.3149 49.3129 25.8672 49.3129Z"/>
<path d="M42.6867 17.7142C42.2173 17.578 41.8848 17.1532 41.8317 16.6673C41.6995 15.4584 41.2024 14.3106 40.3965 13.3822C39.5605 12.4189 38.444 11.7515 37.2131 11.4668C36.7987 11.371 36.4529 11.0692 36.3347 10.6606C35.5893 8.08207 34.0583 5.79277 31.9466 4.11707C29.649 2.29386 26.8003 1.30517 23.8672 1.31303C16.6992 1.31303 10.8672 7.14503 10.8672 14.313C10.8672 14.3987 10.8682 14.4848 10.8702 14.5712C10.8822 15.0927 10.5295 15.5593 10.0258 15.6949C5.32131 16.9614 1.86719 21.2973 1.86719 26.313C1.86719 32.378 6.80219 37.313 12.8672 37.313H19.8672C20.4195 37.313 20.8672 36.8653 20.8672 36.313C20.8672 35.7607 20.4195 35.313 19.8672 35.313H12.8672C7.90519 35.313 3.86719 31.275 3.86719 26.313C3.86719 21.662 7.49819 17.725 12.1342 17.351C12.7196 17.3038 13.138 16.7638 13.0382 16.185C12.9276 15.5671 12.8704 14.9408 12.8672 14.313C12.8672 8.24803 17.8022 3.31303 23.8672 3.31303C29.2602 3.31303 33.8172 7.17503 34.7032 12.496C34.786 12.9935 35.2263 13.3516 35.7302 13.331C35.7323 13.3311 35.7344 13.3311 35.7365 13.3311C35.8242 13.3314 35.9119 13.3133 35.9996 13.3162C38.1445 13.3863 39.8672 15.1523 39.8672 17.314C39.8672 17.586 39.8362 17.867 39.7762 18.149C39.6516 18.7328 40.0631 19.296 40.6572 19.354C42.6353 19.5424 44.4716 20.4633 45.8056 21.9361C47.1396 23.4088 47.8749 25.327 47.8672 27.314C47.8672 31.725 44.2782 35.314 39.8672 35.314H31.8672C31.3149 35.314 30.8672 35.7617 30.8672 36.314C30.8672 36.8663 31.3149 37.314 31.8672 37.314H39.8672C45.3812 37.314 49.8672 32.828 49.8672 27.314C49.8763 25.0059 49.083 22.7663 47.6232 20.9785C46.3425 19.4101 44.6186 18.2748 42.6867 17.7142Z"/>
</symbol><symbol viewBox="0 0 12 16" id="user" xmlns="http://www.w3.org/2000/svg">
  <defs id="sdefs8"/>
  <sodipodi:namedview id="snamedview6" pagecolor="#ffffff" bordercolor="#000000" borderopacity="0.25" xmlns:inkscape="http://www.inkscape.org/namespaces/inkscape" inkscape:showpageshadow="2" inkscape:pageopacity="0.0" inkscape:pagecheckerboard="0" inkscape:deskcolor="#d1d1d1" showgrid="false" inkscape:zoom="50.25" inkscape:cx="5.9900498" inkscape:cy="8.0099502" inkscape:window-width="1920" inkscape:window-height="991" inkscape:window-x="-9" inkscape:window-y="-9" inkscape:window-maximized="1" inkscape:current-layer="svg4" xmlns:sodipodi="http://sodipodi.sourceforge.net/DTD/sodipodi-0.dtd"/>
  <path d="M 6,0.75 C 5.1383379,0.75 4.3104655,1.0918913 3.7011719,1.7011719 3.0918809,2.3104628 2.75,3.1383379 2.75,4 2.75,4.8616621 3.0918809,5.6895372 3.7011719,6.2988281 4.3104655,6.9081087 5.1383379,7.25 6,7.25 6.8616621,7.25 7.6895372,6.9081191 8.2988281,6.2988281 8.9081191,5.6895372 9.25,4.8616621 9.25,4 9.25,3.1383379 8.9081191,2.3104628 8.2988281,1.7011719 7.6895372,1.0918809 6.8616621,0.75 6,0.75 Z m 0,1.5 c 0.4644165,0 0.90794,0.1833307 1.2363281,0.5117188 C 7.5647162,3.0901068 7.75,3.5355835 7.75,4 7.75,4.4644165 7.5647162,4.9098932 7.2363281,5.2382812 6.90794,5.5666693 6.4644165,5.75 6,5.75 5.5355835,5.75 5.0901242,5.5666797 4.7617187,5.2382812 4.4333307,4.9098932 4.25,4.4644165 4.25,4 4.25,3.5355835 4.4333307,3.0901068 4.7617187,2.7617188 5.0901242,2.4333203 5.5355835,2.25 6,2.25 Z m 0,5.4941406 c -1.5084566,0 -2.9578866,0.5925049 -4.0332031,1.6503907 C 0.89147718,10.452397 0.2746284,11.892103 0.25,13.400391 A 0.750075,0.750075 0 0 0 0.6875,14.09375 C 2.3051886,14.836377 4.1068931,15.25 6,15.25 c 1.8329594,0.0022 3.6462505,-0.392205 5.3125,-1.15625 A 0.750075,0.750075 0 0 0 11.75,13.400391 C 11.72528,11.892148 11.108542,10.452405 10.033203,9.3945313 8.9578866,8.3366455 7.5084566,7.7441406 6,7.7441406 Z m 0,1.5 c 1.1154208,0 2.1853272,0.4384507 2.9804688,1.2207034 C 9.6488814,11.1224 10.0102,11.993461 10.140625,12.912109 8.8204661,13.436798 7.4241323,13.751898 6,13.75 4.5286423,13.75 3.1453898,13.426392 1.859375,12.914063 1.9894412,11.994719 2.3506567,11.122861 3.0195313,10.464844 3.8146728,9.6825913 4.8845792,9.2441406 6,9.2441406 Z" id="spath2"/>
</symbol><symbol viewBox="0 0 16 20" id="user-popup" xmlns="http://www.w3.org/2000/svg">
<path fill-rule="evenodd" clip-rule="evenodd" d="M15.1461 15.9841C15.1461 19.1357 10.8241 19.5 7.57403 19.5L7.34145 19.4998C5.27075 19.4948 0 19.364 0 15.9649C0 12.8776 4.14832 12.465 7.37369 12.4495L7.8066 12.4492C9.87717 12.4542 15.1461 12.585 15.1461 15.9841ZM7.57403 13.8833C3.49968 13.8833 1.43429 14.5832 1.43429 15.9649C1.43429 17.3591 3.49968 18.0657 7.57403 18.0657C11.6474 18.0657 13.7119 17.3658 13.7119 15.9841C13.7119 14.5899 11.6474 13.8833 7.57403 13.8833ZM7.57403 0.5C10.3738 0.5 12.6505 2.77766 12.6505 5.5774C12.6505 8.37714 10.3738 10.6538 7.57403 10.6538H7.54343C4.74943 10.6452 2.48611 8.36663 2.49564 5.57453C2.49564 2.77766 4.77333 0.5 7.57403 0.5ZM7.57403 1.86545C5.52681 1.86545 3.8611 3.53019 3.8611 5.5774C3.85443 7.61792 5.50769 9.28171 7.5463 9.28936L7.57403 9.97208V9.28936C9.62029 9.28936 11.285 7.62366 11.285 5.5774C11.285 3.53019 9.62029 1.86545 7.57403 1.86545Z"/>
</symbol><symbol viewBox="0 0 28 24" id="wallet" xmlns="http://www.w3.org/2000/svg">
<path d="M20.0206 0C24.6191 0 27.3332 2.64612 27.3332 7.17573H21.6917V7.22196C19.0734 7.22196 16.9509 9.29132 16.9509 11.844C16.9509 14.3967 19.0734 16.4661 21.6917 16.4661H27.3332V16.882C27.3332 21.3539 24.6191 24 20.0206 24H7.9791C3.38058 24 0.666504 21.3539 0.666504 16.882V7.11796C0.666504 2.64612 3.38058 0 7.9791 0H20.0206ZM26.3376 9.16322C26.8874 9.16322 27.3332 9.59778 27.3332 10.1338V13.5079C27.3268 14.0414 26.8848 14.4723 26.3376 14.4786H21.7984C20.4729 14.496 19.3138 13.6112 19.0132 12.3524C18.8626 11.5711 19.074 10.7648 19.5906 10.1496C20.1072 9.53449 20.8763 9.17343 21.6917 9.16322H26.3376ZM22.3317 10.7232H21.8932C21.6239 10.7201 21.3646 10.8222 21.1732 11.0067C20.9817 11.1912 20.8739 11.4428 20.8739 11.7053C20.8739 12.2561 21.3283 12.7043 21.8932 12.7106H22.3317C22.8946 12.7106 23.3509 12.2657 23.3509 11.7169C23.3509 11.1681 22.8946 10.7232 22.3317 10.7232ZM14.5095 5.18825H6.98354C6.42522 5.18822 5.97077 5.62613 5.96428 6.17044C5.96428 6.72117 6.41871 7.1694 6.98354 7.17573H14.5095C15.0724 7.17573 15.5287 6.73082 15.5287 6.18199C15.5287 5.63317 15.0724 5.18825 14.5095 5.18825Z"/>
</symbol></svg>