<svg width="72" height="72" viewBox="0 0 72 72" fill="none" xmlns="http://www.w3.org/2000/svg">
<g clip-path="url(#clip0_886_625)">
<path d="M25.4418 32.1748C21.9768 32.1748 19.1587 35.3248 19.1587 39.1948C19.1587 43.0648 21.9712 46.2092 25.4418 46.2092C28.9124 46.2092 31.7193 43.0648 31.7193 39.1948C31.7193 35.3248 28.9012 32.1748 25.4418 32.1748ZM25.4418 43.9873C23.1918 43.9873 21.4087 41.8498 21.4087 39.2229C21.4087 36.5961 23.2143 34.4529 25.4418 34.4529C27.6693 34.4529 29.4693 36.5904 29.4693 39.2229C29.4693 41.8554 27.6637 43.9592 25.4418 43.9592V43.9873Z" fill="#181818"/>
<path d="M68.5295 33.5138C66.9903 27.4891 64.8182 21.6441 62.0495 16.0763C61.9551 15.9005 61.8177 15.7515 61.6501 15.6432C58.9315 14.0253 56.0624 12.6746 53.0833 11.6101C47.5595 9.60193 44.9495 9.56255 44.8426 9.56255C44.5697 9.55987 44.305 9.65654 44.098 9.83454C43.891 10.0125 43.7558 10.2597 43.7176 10.5301L43.3801 12.8757C38.4647 12.3882 33.5131 12.3882 28.5976 12.8757L28.2601 10.5301C28.2219 10.2597 28.0867 10.0125 27.8798 9.83454C27.6728 9.65654 27.4081 9.55987 27.1351 9.56255C27.0283 9.56255 24.4183 9.56255 18.8945 11.5932C15.9224 12.6645 13.061 14.0208 10.3501 15.6432C10.1826 15.7515 10.0452 15.9005 9.95076 16.0763C7.18181 21.644 5.00972 27.489 3.47076 33.5138C0.562637 45.2588 0.000137165 51.1369 0.000137165 51.3788C-0.0135454 51.5308 0.00383375 51.684 0.0512174 51.829C0.098601 51.9741 0.174998 52.108 0.275762 52.2226C3.16734 55.2804 6.65037 57.7185 10.5133 59.3888C14.0697 60.9015 17.8142 61.927 21.6451 62.4376C21.8602 62.4573 22.0763 62.4148 22.2678 62.3151C22.4593 62.2153 22.6181 62.0626 22.7251 61.8751L25.7626 56.6719C29.1444 57.2479 32.5698 57.5283 36.0001 57.5101C39.4308 57.5246 42.8563 57.2404 46.2376 56.6607L49.2751 61.8751C49.3733 62.0451 49.5142 62.1865 49.684 62.2851C49.8537 62.3838 50.0463 62.4364 50.2426 62.4376H50.3551C54.1831 61.9337 57.9256 60.9158 61.4814 59.4113C65.3443 57.741 68.8273 55.3029 71.7189 52.2451C71.8196 52.1305 71.896 51.9966 71.9434 51.8515C71.9908 51.7065 72.0082 51.5533 71.9945 51.4013C72.0001 51.1369 71.4658 45.2588 68.5295 33.5138ZM60.6208 57.3132C57.4805 58.6176 54.1971 59.5466 50.8389 60.0807L48.5439 56.1432C51.1764 55.4457 56.6551 53.6344 60.8233 49.8432C60.9341 49.7438 61.0242 49.6236 61.0886 49.4894C61.1529 49.3552 61.1902 49.2097 61.1983 49.0611C61.2064 48.9125 61.1851 48.7637 61.1357 48.6233C61.0864 48.483 61.0098 48.3537 60.9105 48.2429C60.8111 48.1321 60.6909 48.0419 60.5567 47.9776C60.4225 47.9132 60.277 47.8759 60.1283 47.8678C59.9797 47.8597 59.831 47.881 59.6906 47.9304C59.5502 47.9798 59.4209 48.0563 59.3101 48.1557C54.2476 52.7851 46.6764 54.2532 46.5976 54.2701H46.5639C43.0834 54.9439 39.5453 55.2755 36.0001 55.2601C32.4561 55.2866 28.918 54.9663 25.4364 54.3038H25.4026C25.3239 54.3038 17.7808 52.8188 12.6901 48.1894C12.4664 47.9888 12.172 47.8852 11.8719 47.9016C11.5718 47.9179 11.2905 48.0528 11.0898 48.2766C10.8892 48.5004 10.7856 48.7947 10.802 49.0948C10.8183 49.3949 10.9532 49.6763 11.177 49.8769C15.3451 53.6682 20.8239 55.5019 23.4564 56.1769L21.1614 60.1144C17.8024 59.5839 14.5186 58.6548 11.3795 57.3469C7.98236 55.849 4.89985 53.7208 2.29514 51.0751C2.48076 49.4382 3.24014 43.7232 5.67014 34.0651C7.14918 28.3143 9.2072 22.7283 11.8126 17.3926C14.3253 15.9421 16.9604 14.7149 19.6876 13.7251C21.795 12.9153 23.9767 12.3143 26.2014 11.9307L26.3983 13.2751C24.1483 13.8376 18.6076 15.4463 14.2201 18.6357C14.1008 18.7228 13.9999 18.8327 13.923 18.9588C13.8462 19.085 13.7949 19.2251 13.7722 19.3711C13.7263 19.6659 13.7994 19.9669 13.9754 20.2079C14.1515 20.4488 14.416 20.6099 14.7109 20.6558C14.8569 20.6785 15.0059 20.6723 15.1495 20.6374C15.293 20.6025 15.4283 20.5397 15.5476 20.4526C20.5089 16.8469 27.3601 15.3563 27.8439 15.2494C30.5504 14.9252 33.2743 14.7674 36.0001 14.7769C38.7279 14.7661 41.4537 14.9239 44.162 15.2494C44.6739 15.3563 51.4745 16.8413 56.4583 20.4526C56.6992 20.6286 57.0002 20.7017 57.295 20.6558C57.5899 20.6099 57.8544 20.4488 58.0304 20.2079C58.2065 19.9669 58.2796 19.6659 58.2337 19.3711C58.1878 19.0763 58.0267 18.8117 57.7858 18.6357C53.3983 15.4463 47.8801 13.8432 45.6076 13.2751L45.8045 11.9307C48.027 12.3161 50.2067 12.917 52.3126 13.7251C55.0399 14.7149 57.675 15.9421 60.1876 17.3926C62.8085 22.7266 64.8816 28.3127 66.3751 34.0651C68.7883 43.7232 69.5476 49.4382 69.7501 51.0751C67.1292 53.7134 64.0312 55.8302 60.6208 57.3132Z" fill="#181818"/>
<path d="M46.5583 32.1748C43.0989 32.1748 40.2808 35.3248 40.2808 39.1948C40.2808 43.0648 43.0933 46.2092 46.5583 46.2092C50.0233 46.2092 52.8414 43.0648 52.8414 39.1948C52.8414 35.3248 50.0233 32.1748 46.5583 32.1748ZM46.5583 43.9873C44.3083 43.9873 42.5308 41.8498 42.5308 39.2229C42.5308 36.5961 44.3364 34.4529 46.5583 34.4529C48.7801 34.4529 50.5914 36.5904 50.5914 39.2229C50.5914 41.8554 48.7858 43.9592 46.5583 43.9592V43.9873Z" fill="#181818"/>
</g>
<defs>
<clipPath id="clip0_886_625">
<rect width="72" height="72" fill="white"/>
</clipPath>
</defs>
</svg>
