<svg width="62" height="67" viewBox="0 0 62 67" fill="none" xmlns="http://www.w3.org/2000/svg">
<path d="M23.9602 60.5956C23.9596 60.151 23.7622 59.7293 23.4211 59.4442C23.0772 59.1632 22.6284 59.0445 22.1906 59.119C17.4182 60.0038 11.3654 60.0155 9.60763 55.079C8.52639 52.4404 6.79367 50.119 4.5715 48.3319C4.11154 48.0961 3.69699 47.7808 3.34689 47.4005C3.2286 46.6778 2.6055 46.1464 1.87326 46.1435H1.86721C1.04123 46.1435 0.37051 46.8114 0.367214 47.6376C0.358425 49.3485 2.50003 50.6288 3.13284 50.9657C4.72293 52.3939 5.97482 54.1585 6.79806 56.1309C7.84396 59.0694 11.0315 63.6163 20.966 62.3477C20.9748 63.4405 20.9895 64.0059 21.0012 64.4366L21.0158 65.3214C21.0158 66.1497 21.6875 66.8214 22.5158 66.8214C23.3442 66.8214 24.0158 66.1497 24.0158 65.3214L24.0012 64.3544C23.9836 63.7509 23.9602 62.8809 23.9602 60.5956ZM57.7629 13.6708C57.6721 13.5565 57.5754 13.4364 57.4758 13.3163C57.6772 12.6822 57.8356 12.0353 57.9504 11.38C58.4148 8.16042 58.003 4.87514 56.758 1.86983C56.594 1.45693 56.2547 1.13814 55.8322 0.999899C55.4074 0.859274 51.5315 -0.183694 43.4426 5.14541C36.6657 3.42275 29.5654 3.42275 22.7883 5.14541C14.7024 -0.122171 10.8498 0.865133 10.4221 0.99111C9.9916 1.12697 9.64444 1.44832 9.4758 1.86709C8.20816 4.91781 7.79892 8.25692 8.2922 11.5233C8.40701 12.1223 8.55276 12.7148 8.72873 13.2987C8.62326 13.4278 8.52365 13.5565 8.4299 13.6825C5.89022 16.9046 4.53891 20.9038 4.60373 25.0059C4.5964 25.9363 4.63943 26.8663 4.73263 27.7921C5.75216 41.7843 14.7785 45.6778 22.5746 47.0079C22.0669 47.9181 21.6873 48.8941 21.4465 49.9083C21.2491 50.7123 21.7409 51.5244 22.5451 51.7218C23.3493 51.9191 24.1612 51.4273 24.3586 50.6231C24.6362 49.2442 25.3329 47.9846 26.3535 47.0167C26.9777 46.4707 27.0413 45.522 26.4953 44.8978C26.2492 44.6167 25.9073 44.4373 25.5362 44.3946C17.2658 43.4571 8.68185 40.7237 7.72073 27.5196C7.63595 26.6845 7.59695 25.8453 7.60373 25.0059C7.54715 21.5626 8.6813 18.2054 10.8147 15.5019C11.0402 15.1972 11.2922 14.9188 11.5412 14.6435C11.9215 14.2238 12.0338 13.6258 11.8313 13.0966C11.5753 12.42 11.3801 11.722 11.2483 11.0106C10.889 8.59896 11.1285 6.13601 11.9455 3.83877C15.5082 4.3348 18.8728 5.77639 21.6895 8.01357C22.0531 8.25893 22.5065 8.33181 22.9287 8.21279C29.602 6.40224 36.6373 6.40224 43.3106 8.21279C43.7352 8.33144 44.1904 8.25747 44.5555 8.01064C47.3524 5.75039 50.7157 4.30019 54.2793 3.81826C55.0868 6.08089 55.3311 8.50631 54.9912 10.8847C54.8587 11.6405 54.6516 12.3815 54.3731 13.0966C54.1706 13.6258 54.2826 14.2236 54.6631 14.6435C54.9268 14.9335 55.1905 15.2587 55.4217 15.5487C57.5602 18.2314 58.6958 21.5758 58.633 25.0059C58.64 25.864 58.5979 26.7218 58.507 27.5753C57.5549 40.7179 48.9387 43.4513 40.636 44.3946C39.8122 44.4891 39.2209 45.2338 39.3156 46.0578C39.3582 46.4287 39.5375 46.7706 39.8186 47.0165C40.8527 47.9914 41.5453 49.2735 41.7934 50.6727C42.049 51.6608 42.1682 52.679 42.1477 53.6991V61.0762C42.1156 63.1036 42.1156 64.6241 42.1156 65.3212C42.1167 66.1496 42.7893 66.8203 43.6176 66.8192C44.4444 66.8179 45.1143 66.1479 45.1156 65.3212C45.1156 64.6298 45.1156 63.1268 45.1477 61.0995V53.6991C45.1713 52.4287 45.0204 51.1611 44.6996 49.9315C44.4738 48.9093 44.1031 47.9247 43.598 47.0077C51.4232 45.6806 60.4846 41.7899 61.4955 27.8534C61.5948 26.9075 61.6407 25.9568 61.6332 25.0058C61.7015 20.8921 60.3328 16.8836 57.7629 13.6708Z" fill="#181818"/>
</svg>
