<svg width="70" height="58" viewBox="0 0 70 58" fill="none" xmlns="http://www.w3.org/2000/svg">
<path d="M23.4349 57.3471C16.9849 57.3471 9.52087 55.6911 1.26487 51.0561C0.640867 50.7051 0.352867 49.9641 0.574867 49.2861C0.796867 48.6081 1.46587 48.1611 2.17387 48.2601C7.61587 48.8841 13.5589 47.6091 17.9989 45.0021C12.9139 43.8081 8.80387 40.5051 6.63487 35.7081C6.51571 35.4454 6.47498 35.1539 6.51755 34.8686C6.56013 34.5834 6.68421 34.3165 6.87487 34.1001C7.26487 33.6561 7.87687 33.4851 8.44087 33.6561C9.09487 33.8571 9.74587 33.9951 10.3729 34.0701C6.51187 31.7661 2.37787 27.3561 2.37787 20.7471C2.37793 20.464 2.45808 20.1867 2.60906 19.9473C2.76005 19.7079 2.9757 19.516 3.2311 19.394C3.48649 19.2719 3.77121 19.2246 4.05236 19.2576C4.3335 19.2905 4.59958 19.4023 4.81987 19.5801C5.29987 19.9701 5.81287 20.2971 6.34387 20.5551C5.13835 18.9191 4.25374 17.0694 3.73687 15.1041C2.74087 11.2581 3.31987 7.35807 5.40787 3.83607C5.53212 3.62771 5.70496 3.45253 5.91163 3.32548C6.11829 3.19844 6.35264 3.1233 6.59465 3.1065C6.83666 3.0897 7.07914 3.13173 7.30138 3.229C7.52362 3.32626 7.71901 3.47588 7.87087 3.66507C12.2869 9.18207 20.1349 15.8481 32.7529 17.0631C32.5189 13.0701 33.7189 6.52707 39.2329 3.30807C46.0159 -0.651933 52.5409 -0.141933 58.1479 4.76907C60.6319 4.21707 64.5529 2.51307 65.3659 1.94607C65.6178 1.76967 65.9179 1.67498 66.2254 1.67483C66.533 1.67468 66.8332 1.76908 67.0853 1.94523C67.3374 2.12139 67.5293 2.37078 67.6349 2.65963C67.7406 2.94848 67.7549 3.26282 67.6759 3.56007C67.3009 4.97307 66.4519 6.54507 65.3959 7.94907C66.2329 7.70007 66.9379 7.44807 67.3129 7.25607C67.6053 7.10543 67.9392 7.05513 68.2631 7.1129C68.587 7.17068 68.8829 7.33332 69.1052 7.57579C69.3276 7.81826 69.464 8.12711 69.4936 8.45476C69.5232 8.78242 69.4442 9.1107 69.2689 9.38907C67.5049 12.1791 64.6519 14.7771 62.7469 16.1871C63.7759 28.8621 56.3689 43.0251 44.4799 50.9181C40.0699 53.8431 32.8219 57.3471 23.4349 57.3471ZM8.44987 51.2181C24.5029 57.8031 36.6589 52.5021 42.8179 48.4131C54.0859 40.9311 61.0189 27.4491 59.6779 15.6261C59.646 15.3506 59.6914 15.0717 59.809 14.8205C59.9266 14.5694 60.1118 14.3559 60.3439 14.2041C61.1509 13.6731 62.3839 12.6981 63.6259 11.4891C62.4049 11.7531 61.2199 11.9301 60.3589 11.9331C59.5309 11.8341 59.0179 11.4261 58.8829 10.7181C58.8157 10.3753 58.8708 10.0199 59.0385 9.7135C59.2062 9.40714 59.476 9.16921 59.8009 9.04107C60.6499 8.70207 61.7959 7.67907 62.7859 6.42507C61.0879 7.08207 59.2519 7.66407 57.9019 7.85907C57.6791 7.89134 57.4519 7.87276 57.2373 7.80469C57.0227 7.73663 56.8263 7.62086 56.6629 7.46607C51.9289 3.02007 46.5769 2.49207 40.7449 5.89407C35.5099 8.95407 35.3929 16.0851 35.9449 18.3381C36.0017 18.5658 36.0042 18.8038 35.9521 19.0327C35.9 19.2616 35.7948 19.4751 35.645 19.6558C35.4952 19.8366 35.305 19.9796 35.0898 20.0732C34.8745 20.1669 34.6402 20.2086 34.4059 20.1951C20.9929 19.4871 12.2809 13.1571 7.03987 7.31907C6.17057 9.56286 6.03198 12.0239 6.64387 14.3511C7.52587 17.7501 9.74587 20.3571 11.4319 21.3411C11.6945 21.4943 11.9044 21.7237 12.0337 21.999C12.163 22.2742 12.2056 22.5823 12.1558 22.8823C12.106 23.1823 11.9662 23.4601 11.755 23.6788C11.5437 23.8975 11.271 24.0469 10.9729 24.1071C9.20402 24.4332 7.37858 24.2405 5.71687 23.5521C7.27987 29.8071 13.7839 32.7531 15.6139 32.9571C15.9048 32.9904 16.1797 33.108 16.4047 33.2954C16.6297 33.4828 16.795 33.7319 16.8804 34.012C16.9658 34.2921 16.9676 34.591 16.8854 34.8721C16.8032 35.1531 16.6407 35.4041 16.4179 35.5941C15.1069 36.7011 13.1449 37.2351 10.9339 37.1241C13.4419 40.4661 17.3299 42.3861 21.9769 42.4881C22.2776 42.4947 22.5693 42.5915 22.8143 42.766C23.0593 42.9405 23.2461 43.1846 23.3506 43.4667C23.4551 43.7487 23.4723 44.0557 23.4002 44.3477C23.328 44.6396 23.1697 44.9032 22.9459 45.1041C19.2619 48.4041 13.9759 50.5731 8.44987 51.2181Z" fill="#181818"/>
</svg>
