<svg width="28" height="28" viewBox="0 0 28 28" fill="none" xmlns="http://www.w3.org/2000/svg">
<path d="M15.9998 6C14.9332 6 13.9998 6.93334 13.9998 8C13.9998 9.06667 14.9332 10 15.9998 10C17.0665 10 17.9998 9.06667 17.9998 8C17.9998 6.93334 17.0665 6 15.9998 6ZM23.3332 0.666672H4.6665C2.39984 0.666672 0.666504 2.4 0.666504 4.66667V23.3333C0.666504 25.6 2.39984 27.3333 4.6665 27.3333H23.3332C25.5998 27.3333 27.3332 25.6 27.3332 23.3333V4.66667C27.3332 2.4 25.5998 0.666672 23.3332 0.666672ZM24.6665 16.5333L22.1332 14C20.5332 12.5333 17.9998 12.5333 16.5332 14L15.3332 15.2L11.4665 11.3333C9.8665 9.86667 7.33317 9.86667 5.8665 11.3333L3.33317 13.8667V4.66667C3.33317 3.86667 3.8665 3.33334 4.6665 3.33334H23.3332C24.1332 3.33334 24.6665 3.86667 24.6665 4.66667V16.5333Z" fill="white"/>
</svg>
