<svg width="28" height="24" viewBox="0 0 28 24" fill="none" xmlns="http://www.w3.org/2000/svg">
<path d="M20.0206 0C24.6191 0 27.3332 2.64612 27.3332 7.17573H21.6917V7.22196C19.0734 7.22196 16.9509 9.29132 16.9509 11.844C16.9509 14.3967 19.0734 16.4661 21.6917 16.4661H27.3332V16.882C27.3332 21.3539 24.6191 24 20.0206 24H7.9791C3.38058 24 0.666504 21.3539 0.666504 16.882V7.11796C0.666504 2.64612 3.38058 0 7.9791 0H20.0206ZM26.3376 9.16322C26.8874 9.16322 27.3332 9.59778 27.3332 10.1338V13.5079C27.3268 14.0414 26.8848 14.4723 26.3376 14.4786H21.7984C20.4729 14.496 19.3138 13.6112 19.0132 12.3524C18.8626 11.5711 19.074 10.7648 19.5906 10.1496C20.1072 9.53449 20.8763 9.17343 21.6917 9.16322H26.3376ZM22.3317 10.7232H21.8932C21.6239 10.7201 21.3646 10.8222 21.1732 11.0067C20.9817 11.1912 20.8739 11.4428 20.8739 11.7053C20.8739 12.2561 21.3283 12.7043 21.8932 12.7106H22.3317C22.8946 12.7106 23.3509 12.2657 23.3509 11.7169C23.3509 11.1681 22.8946 10.7232 22.3317 10.7232ZM14.5095 5.18825H6.98354C6.42522 5.18822 5.97077 5.62613 5.96428 6.17044C5.96428 6.72117 6.41871 7.1694 6.98354 7.17573H14.5095C15.0724 7.17573 15.5287 6.73082 15.5287 6.18199C15.5287 5.63317 15.0724 5.18825 14.5095 5.18825Z" fill="white"/>
</svg>
