<svg width="33" height="33" viewBox="0 0 33 33" fill="none" xmlns="http://www.w3.org/2000/svg">
<path d="M12.375 0H0V12.375H12.375V0ZM10.3125 10.3125H2.0625V2.0625H10.3125V10.3125Z" fill="#231E43"/>
<path d="M4.125 4.125H8.25V8.25H4.125V4.125ZM0 33H12.375V20.625H0V33ZM2.0625 22.6875H10.3125V30.9375H2.0625V22.6875Z" fill="#231E43"/>
<path d="M4.125 24.75H8.25V28.875H4.125V24.75ZM20.625 0V12.375H33V0H20.625ZM30.9375 10.3125H22.6875V2.0625H30.9375V10.3125Z" fill="#231E43"/>
<path d="M24.75 4.125H28.875V8.25H24.75V4.125ZM4.125 14.4375H0V18.5625H6.1875V16.5H4.125V14.4375ZM14.4375 18.5625H18.5625V22.6875H14.4375V18.5625ZM6.1875 14.4375H10.3125V16.5H6.1875V14.4375ZM18.5625 24.75H14.4375V26.8125H16.5V28.875H18.5625V26.8125V24.75ZM12.375 14.4375V16.5H10.3125V18.5625H14.4375V14.4375H12.375ZM16.5 8.25H18.5625V12.375H16.5V8.25ZM18.5625 16.5V18.5625H22.6875V14.4375H16.5V16.5H18.5625ZM14.4375 12.375H16.5V14.4375H14.4375V12.375ZM18.5625 28.875H22.6875V33H18.5625V28.875ZM14.4375 28.875H16.5V33H14.4375V28.875ZM18.5625 22.6875H20.625V24.75H18.5625V22.6875ZM18.5625 6.1875V2.0625H16.5V0H14.4375V8.25H16.5V6.1875H18.5625ZM24.75 28.875H26.8125V33H24.75V28.875ZM24.75 24.75H28.875V26.8125H24.75V24.75ZM22.6875 26.8125H24.75V28.875H22.6875V26.8125ZM20.625 24.75H22.6875V26.8125H20.625V24.75ZM28.875 20.625V22.6875H30.9375V24.75H33V20.625H30.9375H28.875ZM30.9375 26.8125H28.875V33H33V28.875H30.9375V26.8125ZM20.625 20.625V22.6875H26.8125V18.5625H22.6875V20.625H20.625ZM24.75 14.4375V16.5H28.875V18.5625H33V14.4375H28.875H24.75Z" fill="#231E43"/>
</svg>
