<svg width="227" height="34" viewBox="0 0 227 34" fill="none" xmlns="http://www.w3.org/2000/svg">
<mask id="mask0_1016_354" style="mask-type:alpha" maskUnits="userSpaceOnUse" x="0" y="0" width="40" height="34">
<mask id="mask1_1016_354" style="mask-type:luminance" maskUnits="userSpaceOnUse" x="0" y="0" width="41" height="34">
<path d="M40.12 0H0V34H40.12V0Z" fill="white"/>
</mask>
<g mask="url(#mask1_1016_354)">
<path d="M8.68058 31.3246C14.3576 33.9089 21.0547 31.4018 23.6391 25.7248C26.2235 20.0478 23.7164 13.3507 18.0394 10.7663C12.3624 8.18195 5.66522 10.689 3.08086 16.366C0.496496 22.043 3.00358 28.7402 8.68058 31.3246Z" stroke="black" stroke-width="3"/>
<path d="M22.3398 23.6389C28.0168 26.2232 34.7139 23.7162 37.2983 18.0392C39.8826 12.3622 37.3756 5.665 31.6986 3.08064C26.0216 0.496283 19.3244 3.00337 16.74 8.68037C14.1557 14.3574 16.6628 21.0545 22.3398 23.6389Z" stroke="black" stroke-width="3"/>
</g>
</mask>
<g mask="url(#mask0_1016_354)">
<path d="M40.12 0H0V34H40.12V0Z" fill="white"/>
</g>
<path d="M51.8881 26V7.8H59.1941C61.0835 7.8 62.5221 8.242 63.5101 9.126C64.5155 9.99267 65.0181 11.1107 65.0181 12.48C65.0181 13.624 64.7061 14.5427 64.0821 15.236C63.4755 15.912 62.7301 16.3713 61.8461 16.614C62.8861 16.822 63.7441 17.342 64.4201 18.174C65.0961 18.9887 65.4341 19.942 65.4341 21.034C65.4341 22.4727 64.9141 23.66 63.8741 24.596C62.8341 25.532 61.3608 26 59.4541 26H51.8881ZM55.2161 15.444H58.7001C59.6361 15.444 60.3555 15.2273 60.8581 14.794C61.3608 14.3607 61.6121 13.7453 61.6121 12.948C61.6121 12.1853 61.3608 11.5873 60.8581 11.154C60.3728 10.7033 59.6361 10.478 58.6481 10.478H55.2161V15.444ZM55.2161 23.296H58.9341C59.9221 23.296 60.6848 23.0707 61.2221 22.62C61.7768 22.152 62.0541 21.502 62.0541 20.67C62.0541 19.8207 61.7681 19.1533 61.1961 18.668C60.6241 18.1827 59.8528 17.94 58.8821 17.94H55.2161V23.296ZM68.9665 11.102C68.3598 11.102 67.8571 10.92 67.4585 10.556C67.0771 10.192 66.8865 9.73267 66.8865 9.178C66.8865 8.62333 67.0771 8.17267 67.4585 7.826C67.8571 7.462 68.3598 7.28 68.9665 7.28C69.5731 7.28 70.0671 7.462 70.4485 7.826C70.8471 8.17267 71.0465 8.62333 71.0465 9.178C71.0465 9.73267 70.8471 10.192 70.4485 10.556C70.0671 10.92 69.5731 11.102 68.9665 11.102ZM67.3025 26V13.104H70.6305V26H67.3025ZM73.0641 26V13.104H76.0021L76.2621 15.288C76.6608 14.5253 77.2328 13.9187 77.9781 13.468C78.7408 13.0173 79.6334 12.792 80.6561 12.792C82.2508 12.792 83.4901 13.2947 84.3741 14.3C85.2581 15.3053 85.7001 16.7787 85.7001 18.72V26H82.3721V19.032C82.3721 17.9227 82.1468 17.0733 81.6961 16.484C81.2454 15.8947 80.5434 15.6 79.5901 15.6C78.6541 15.6 77.8828 15.9293 77.2761 16.588C76.6868 17.2467 76.3921 18.1653 76.3921 19.344V26H73.0641ZM92.2885 26.312C91.1791 26.312 90.2691 26.1387 89.5585 25.792C88.8478 25.428 88.3191 24.9513 87.9725 24.362C87.6258 23.7727 87.4525 23.1227 87.4525 22.412C87.4525 21.216 87.9205 20.2453 88.8565 19.5C89.7925 18.7547 91.1965 18.382 93.0685 18.382H96.3445V18.07C96.3445 17.186 96.0931 16.536 95.5905 16.12C95.0878 15.704 94.4638 15.496 93.7185 15.496C93.0425 15.496 92.4531 15.6607 91.9505 15.99C91.4478 16.302 91.1358 16.77 91.0145 17.394H87.7645C87.8511 16.458 88.1631 15.6433 88.7005 14.95C89.2551 14.2567 89.9658 13.728 90.8325 13.364C91.6991 12.9827 92.6698 12.792 93.7445 12.792C95.5818 12.792 97.0291 13.2513 98.0865 14.17C99.1438 15.0887 99.6725 16.3887 99.6725 18.07V26H96.8385L96.5265 23.92C96.1451 24.6133 95.6078 25.1853 94.9145 25.636C94.2385 26.0867 93.3631 26.312 92.2885 26.312ZM93.0425 23.712C93.9958 23.712 94.7325 23.4 95.2525 22.776C95.7898 22.152 96.1278 21.3807 96.2665 20.462H93.4325C92.5485 20.462 91.9158 20.6267 91.5345 20.956C91.1531 21.268 90.9625 21.658 90.9625 22.126C90.9625 22.6287 91.1531 23.0187 91.5345 23.296C91.9158 23.5733 92.4185 23.712 93.0425 23.712ZM101.808 26V13.104H104.772L105.084 15.522C105.552 14.69 106.185 14.0313 106.982 13.546C107.797 13.0433 108.75 12.792 109.842 12.792V16.302H108.906C108.178 16.302 107.528 16.4147 106.956 16.64C106.384 16.8653 105.934 17.2553 105.604 17.81C105.292 18.3647 105.136 19.136 105.136 20.124V26H101.808ZM112.689 31.72L115.679 25.142H114.899L109.881 13.104H113.495L117.109 22.178L120.879 13.104H124.415L116.225 31.72H112.689ZM125.785 26V7.8H128.333L134.885 20.488L141.385 7.8H143.959V26H141.775V11.7L135.691 23.4H134.053L127.969 11.726V26H125.785ZM150.918 26.312C149.844 26.312 148.951 26.13 148.24 25.766C147.53 25.402 147.001 24.9167 146.654 24.31C146.308 23.7033 146.134 23.0447 146.134 22.334C146.134 21.0167 146.637 20.0027 147.642 19.292C148.648 18.5813 150.017 18.226 151.75 18.226H155.234V18.07C155.234 16.9433 154.94 16.094 154.35 15.522C153.761 14.9327 152.972 14.638 151.984 14.638C151.135 14.638 150.398 14.8547 149.774 15.288C149.168 15.704 148.786 16.3193 148.63 17.134H146.394C146.481 16.198 146.793 15.4093 147.33 14.768C147.885 14.1267 148.57 13.6413 149.384 13.312C150.199 12.9653 151.066 12.792 151.984 12.792C153.787 12.792 155.139 13.2773 156.04 14.248C156.959 15.2013 157.418 16.4753 157.418 18.07V26H155.468L155.338 23.686C154.974 24.414 154.437 25.038 153.726 25.558C153.033 26.0607 152.097 26.312 150.918 26.312ZM151.256 24.466C152.088 24.466 152.799 24.2493 153.388 23.816C153.995 23.3827 154.454 22.8193 154.766 22.126C155.078 21.4327 155.234 20.7047 155.234 19.942V19.916H151.932C150.65 19.916 149.74 20.1413 149.202 20.592C148.682 21.0253 148.422 21.5713 148.422 22.23C148.422 22.906 148.665 23.452 149.15 23.868C149.653 24.2667 150.355 24.466 151.256 24.466ZM159.655 26V13.104H161.631L161.813 15.574C162.211 14.7247 162.818 14.0487 163.633 13.546C164.447 13.0433 165.453 12.792 166.649 12.792V15.08H166.051C165.288 15.08 164.586 15.2187 163.945 15.496C163.303 15.756 162.792 16.2067 162.411 16.848C162.029 17.4893 161.839 18.3733 161.839 19.5V26H159.655ZM168.06 26V13.104H170.036L170.218 15.574C170.617 14.7247 171.223 14.0487 172.038 13.546C172.853 13.0433 173.858 12.792 175.054 12.792V15.08H174.456C173.693 15.08 172.991 15.2187 172.35 15.496C171.709 15.756 171.197 16.2067 170.816 16.848C170.435 17.4893 170.244 18.3733 170.244 19.5V26H168.06ZM177.791 10.244C177.358 10.244 176.994 10.1053 176.699 9.828C176.422 9.53333 176.283 9.16933 176.283 8.736C176.283 8.32 176.422 7.97333 176.699 7.696C176.994 7.41867 177.358 7.28 177.791 7.28C178.207 7.28 178.563 7.41867 178.857 7.696C179.152 7.97333 179.299 8.32 179.299 8.736C179.299 9.16933 179.152 9.53333 178.857 9.828C178.563 10.1053 178.207 10.244 177.791 10.244ZM176.699 26V13.104H178.883V26H176.699ZM185.936 26.312C184.861 26.312 183.969 26.13 183.258 25.766C182.547 25.402 182.019 24.9167 181.672 24.31C181.325 23.7033 181.152 23.0447 181.152 22.334C181.152 21.0167 181.655 20.0027 182.66 19.292C183.665 18.5813 185.035 18.226 186.768 18.226H190.252V18.07C190.252 16.9433 189.957 16.094 189.368 15.522C188.779 14.9327 187.99 14.638 187.002 14.638C186.153 14.638 185.416 14.8547 184.792 15.288C184.185 15.704 183.804 16.3193 183.648 17.134H181.412C181.499 16.198 181.811 15.4093 182.348 14.768C182.903 14.1267 183.587 13.6413 184.402 13.312C185.217 12.9653 186.083 12.792 187.002 12.792C188.805 12.792 190.157 13.2773 191.058 14.248C191.977 15.2013 192.436 16.4753 192.436 18.07V26H190.486L190.356 23.686C189.992 24.414 189.455 25.038 188.744 25.558C188.051 26.0607 187.115 26.312 185.936 26.312ZM186.274 24.466C187.106 24.466 187.817 24.2493 188.406 23.816C189.013 23.3827 189.472 22.8193 189.784 22.126C190.096 21.4327 190.252 20.7047 190.252 19.942V19.916H186.95C185.667 19.916 184.757 20.1413 184.22 20.592C183.7 21.0253 183.44 21.5713 183.44 22.23C183.44 22.906 183.683 23.452 184.168 23.868C184.671 24.2667 185.373 24.466 186.274 24.466ZM199.768 21.944C199.04 21.944 198.373 21.8487 197.766 21.658L196.466 22.88C196.657 23.0187 196.891 23.14 197.168 23.244C197.463 23.3307 197.879 23.4173 198.416 23.504C198.954 23.5733 199.708 23.6513 200.678 23.738C202.412 23.8593 203.651 24.258 204.396 24.934C205.142 25.61 205.514 26.494 205.514 27.586C205.514 28.3313 205.306 29.042 204.89 29.718C204.492 30.394 203.868 30.9487 203.018 31.382C202.186 31.8153 201.112 32.032 199.794 32.032C198.633 32.032 197.602 31.876 196.7 31.564C195.799 31.2693 195.097 30.81 194.594 30.186C194.092 29.5793 193.84 28.808 193.84 27.872C193.84 27.3867 193.97 26.858 194.23 26.286C194.49 25.7313 194.976 25.2027 195.686 24.7C195.305 24.544 194.976 24.3793 194.698 24.206C194.438 24.0153 194.196 23.8073 193.97 23.582V22.984L196.18 20.8C195.158 19.9333 194.646 18.7893 194.646 17.368C194.646 16.5187 194.846 15.7473 195.244 15.054C195.643 14.3607 196.224 13.8147 196.986 13.416C197.749 13 198.676 12.792 199.768 12.792C200.514 12.792 201.19 12.896 201.796 13.104H206.554V14.742L204.136 14.846C204.639 15.574 204.89 16.4147 204.89 17.368C204.89 18.2173 204.682 18.9887 204.266 19.682C203.868 20.3753 203.287 20.93 202.524 21.346C201.779 21.7447 200.86 21.944 199.768 21.944ZM199.768 20.15C200.687 20.15 201.415 19.916 201.952 19.448C202.507 18.9627 202.784 18.2693 202.784 17.368C202.784 16.484 202.507 15.808 201.952 15.34C201.415 14.8547 200.687 14.612 199.768 14.612C198.832 14.612 198.087 14.8547 197.532 15.34C196.995 15.808 196.726 16.484 196.726 17.368C196.726 18.2693 196.995 18.9627 197.532 19.448C198.087 19.916 198.832 20.15 199.768 20.15ZM195.972 27.664C195.972 28.5307 196.336 29.172 197.064 29.588C197.792 30.0213 198.702 30.238 199.794 30.238C200.869 30.238 201.727 30.004 202.368 29.536C203.027 29.068 203.356 28.444 203.356 27.664C203.356 27.1093 203.131 26.624 202.68 26.208C202.23 25.8093 201.398 25.5753 200.184 25.506C199.231 25.4367 198.408 25.35 197.714 25.246C197.004 25.6273 196.536 26.0347 196.31 26.468C196.085 26.9187 195.972 27.3173 195.972 27.664ZM213.268 26.312C212.038 26.312 210.946 26.0347 209.992 25.48C209.039 24.908 208.285 24.1193 207.73 23.114C207.193 22.1087 206.924 20.9213 206.924 19.552C206.924 18.2 207.193 17.0213 207.73 16.016C208.268 14.9933 209.013 14.2047 209.966 13.65C210.937 13.078 212.055 12.792 213.32 12.792C214.568 12.792 215.643 13.078 216.544 13.65C217.463 14.2047 218.165 14.9413 218.65 15.86C219.136 16.7787 219.378 17.7667 219.378 18.824C219.378 19.0147 219.37 19.2053 219.352 19.396C219.352 19.5867 219.352 19.8033 219.352 20.046H209.082C209.134 21.034 209.36 21.8573 209.758 22.516C210.174 23.1573 210.686 23.6427 211.292 23.972C211.916 24.3013 212.575 24.466 213.268 24.466C214.17 24.466 214.924 24.258 215.53 23.842C216.137 23.426 216.579 22.8627 216.856 22.152H219.014C218.668 23.348 218 24.3447 217.012 25.142C216.042 25.922 214.794 26.312 213.268 26.312ZM213.268 14.638C212.228 14.638 211.301 14.9587 210.486 15.6C209.689 16.224 209.23 17.1427 209.108 18.356H217.22C217.168 17.1947 216.77 16.2847 216.024 15.626C215.279 14.9673 214.36 14.638 213.268 14.638ZM222.559 26.182C221.952 26.182 221.45 25.9913 221.051 25.61C220.67 25.2287 220.479 24.7693 220.479 24.232C220.479 23.6773 220.67 23.2093 221.051 22.828C221.45 22.4467 221.952 22.256 222.559 22.256C223.166 22.256 223.66 22.4467 224.041 22.828C224.44 23.2093 224.639 23.6773 224.639 24.232C224.639 24.7693 224.44 25.2287 224.041 25.61C223.66 25.9913 223.166 26.182 222.559 26.182Z" fill="white"/>
</svg>
